<svg width="431" height="299" viewBox="0 0 431 299" fill="none" xmlns="http://www.w3.org/2000/svg">
<path d="M246.811 3.20872C246.811 2.66875 241.005 1.15321 235.791 0.33191C231.845 -0.289734 222.124 0.00326498 218.05 0.866048C215.601 1.38462 211.597 2.91119 209.15 4.25819C202.344 8.00556 192.989 14.8475 191.092 17.467L189.39 19.8149L186.778 18.005C184.126 16.168 181.959 13.3508 179.519 8.56886C178.389 6.35259 177.678 5.78475 175.149 5.07624C172.531 4.3431 171.728 4.37422 169.118 5.3096C167.462 5.90337 164.885 6.3876 163.391 6.38565C159.337 6.38111 159.496 7.37289 163.699 8.30049C169.027 9.47637 170.779 10.3489 175.507 14.176C181.211 18.7945 181.589 19.4129 180.918 23.0372L180.368 26.0041L170.645 28.407C165.297 29.7288 160.008 31.2832 158.892 31.8614C154.983 33.8864 151.727 39.0424 149.809 46.2448C148.652 50.5885 148.598 65.5851 149.74 65.2195C151.057 64.7982 156.576 56.4465 159.946 49.7789C163.429 42.8844 163.729 42.5467 167.404 41.3812C170.234 40.484 177.558 36.8261 179.882 35.1498C181.205 34.1963 181.341 34.1937 181.341 35.1265C181.341 36.5461 184.999 40.5858 187.418 41.8362C190.066 43.2053 195.723 43.1768 197.849 41.7837C198.759 41.188 199.428 40.9644 199.335 41.2878C199.119 42.043 211.346 55.666 218.477 62.6156C224.39 68.3777 225.902 68.9714 229.743 67.041C230.752 66.5335 232.723 65.8768 234.124 65.5825C235.972 65.1936 236.958 64.522 237.724 63.1342C238.358 61.9842 239.558 61.0197 240.732 60.715C241.807 60.4369 243.471 59.3285 244.43 58.2524C245.736 56.7862 246.737 56.2955 248.423 56.2955C250.396 56.2955 250.837 55.9752 251.994 53.709L253.313 51.122L251.861 48.9057C249.86 45.8552 246.91 44.7817 226.716 39.76C217.268 37.4108 208.462 35.2043 207.146 34.8575C205.831 34.5107 204.594 33.7231 204.396 33.1073C204.199 32.4908 202.723 31.1581 201.116 30.1449C198.237 28.3292 197.402 27.1255 199.023 27.1255C200.287 27.1255 208.884 22.8725 212.321 20.548C213.999 19.4123 216.755 17.2103 218.446 15.6533C222.004 12.3772 225.075 10.9465 234.494 8.17992C242.473 5.83531 246.811 4.08511 246.811 3.20872Z" fill="#44481E" fill-opacity="0.4"/>
<path d="M188.66 155.888C188.66 154.847 177.471 151.926 167.424 150.344C159.819 149.146 141.085 149.71 133.235 151.373C128.516 152.372 120.798 155.314 116.084 157.91C102.968 165.131 84.9396 178.317 81.2845 183.364L78.0054 187.889L72.9712 184.401C67.8608 180.861 63.6848 175.432 58.983 166.217C56.8044 161.946 55.4353 160.852 50.561 159.486C45.5156 158.074 43.9691 158.134 38.9386 159.936C35.7482 161.08 30.7816 162.014 27.9022 162.01C20.0899 162.001 20.3971 163.912 28.4968 165.7C38.7625 167.966 42.1403 169.647 51.2505 177.022C62.2433 185.923 62.9716 187.114 61.6787 194.099L60.6194 199.816L41.8817 204.447C31.576 206.994 21.384 209.989 19.2329 211.104C11.7004 215.006 5.42575 224.942 1.72945 238.822C-0.500336 247.192 -0.605255 276.092 1.59579 275.388C4.13287 274.576 14.7696 258.481 21.2628 245.632C27.9759 232.346 28.553 231.695 35.6358 229.449C41.0898 227.72 55.2042 220.671 59.6825 217.441C62.2308 215.603 62.4931 215.598 62.4931 217.396C62.4931 220.131 69.5435 227.916 74.2042 230.326C79.307 232.964 90.2086 232.909 94.3059 230.225C96.0598 229.077 97.3489 228.646 97.1703 229.269C96.7531 230.724 120.315 256.977 134.058 270.37C145.452 281.473 148.367 282.618 155.768 278.898C157.713 277.92 161.512 276.654 164.21 276.087C167.771 275.338 169.672 274.043 171.148 271.369C172.369 269.153 174.682 267.294 176.945 266.707C179.016 266.171 182.223 264.035 184.07 261.961C186.588 259.136 188.518 258.19 191.767 258.19C195.568 258.19 196.419 257.573 198.647 253.206L201.19 248.22L198.391 243.95C194.536 238.071 188.85 236.002 149.935 226.325C131.729 221.798 114.759 217.546 112.223 216.877C109.688 216.209 107.304 214.691 106.923 213.505C106.543 212.317 103.698 209.748 100.602 207.796C95.0529 204.297 93.444 201.977 96.5682 201.977C99.0041 201.977 115.572 193.781 122.195 189.302C125.429 187.113 130.739 182.87 133.997 179.869C140.854 173.556 146.773 170.799 164.924 165.467C180.3 160.949 188.66 157.576 188.66 155.888Z" fill="#44481E" fill-opacity="0.4"/>
<path d="M423.051 219.371C423.051 218.711 415.953 216.858 409.579 215.854C404.755 215.094 392.871 215.452 387.891 216.507C384.897 217.141 380.001 219.007 377.011 220.654C368.69 225.235 357.253 233.599 354.935 236.802L352.855 239.672L349.661 237.459C346.419 235.213 343.77 231.769 340.787 225.924C339.405 223.214 338.537 222.52 335.444 221.654C332.244 220.758 331.263 220.796 328.072 221.939C326.048 222.665 322.897 223.257 321.07 223.255C316.114 223.249 316.309 224.462 321.447 225.596C327.96 227.033 330.103 228.1 335.882 232.778C342.855 238.424 343.317 239.18 342.497 243.611L341.825 247.238L329.939 250.176C323.401 251.791 316.935 253.692 315.571 254.399C310.792 256.874 306.812 263.177 304.467 271.982C303.052 277.292 302.986 295.626 304.382 295.179C305.992 294.664 312.739 284.454 316.858 276.303C321.117 267.874 321.483 267.461 325.976 266.036C329.436 264.94 338.39 260.468 341.231 258.419C342.848 257.253 343.014 257.25 343.014 258.39C343.014 260.126 347.486 265.064 350.443 266.593C353.68 268.266 360.596 268.232 363.195 266.529C364.308 265.8 365.126 265.527 365.012 265.922C364.748 266.846 379.695 283.5 388.413 291.995C395.641 299.039 397.49 299.765 402.185 297.405C403.419 296.785 405.829 295.982 407.54 295.622C409.8 295.147 411.006 294.326 411.942 292.629C412.717 291.224 414.184 290.044 415.619 289.672C416.933 289.332 418.967 287.977 420.14 286.661C421.736 284.869 422.961 284.269 425.022 284.269C427.433 284.269 427.973 283.878 429.387 281.107L431 277.945L429.224 275.235C426.779 271.506 423.171 270.194 398.485 264.055C386.935 261.183 376.17 258.485 374.561 258.061C372.953 257.637 371.441 256.674 371.199 255.922C370.958 255.168 369.154 253.539 367.189 252.3C363.669 250.081 362.648 248.609 364.63 248.609C366.176 248.609 376.686 243.41 380.887 240.568C382.939 239.18 386.308 236.488 388.374 234.584C392.724 230.579 396.479 228.83 407.994 225.448C417.748 222.582 423.051 220.442 423.051 219.371Z" fill="#44481E" fill-opacity="0.4"/>
</svg>
