<svg width="770" height="273" viewBox="0 0 770 273" fill="none" xmlns="http://www.w3.org/2000/svg">
<path fill-rule="evenodd" clip-rule="evenodd" d="M588.271 0.94452C584.87 2.1186 583.682 3.46447 582.701 7.25791C582.254 8.98308 581.084 13.0439 580.1 16.2823L578.312 22.1701L575.899 22.4254C574.572 22.5658 569.143 23.0209 563.835 23.4359C545.414 24.8768 529.559 26.5431 526.981 27.3094C518 29.9795 522.353 36.2118 533.2 36.2118C535.231 36.2118 543.932 35.5695 552.535 34.7848C577.769 32.483 575.309 32.6094 575.005 33.6329C574.062 36.8034 572.636 43.2249 571.538 49.241C569.457 60.6459 563.557 73.3808 553.431 88.3287C547.363 97.2841 542.439 102.429 537.496 104.977C535.297 106.111 535.278 106.112 533.877 105.194C531.225 103.456 527.494 99.349 525.972 96.4946C522.711 90.3767 520.934 78.3411 521.965 69.362C522.487 64.8119 522.139 63.9201 519.21 62.3045C517.429 61.3225 516.231 61.0933 511.948 60.9166C503.457 60.5668 499.852 62.221 498.481 67.0959C497.255 71.4539 493.043 81.4406 490.645 85.6746C485.628 94.5311 477.286 104.079 471.72 107.334C469.466 108.653 469.295 108.681 467.814 107.974C466.961 107.568 464.962 106.03 463.372 104.558C456.744 98.422 453.775 88.3842 453.218 70.2359L452.937 61.0706L451.511 59.7382C449.258 57.6342 445.583 56.8076 439.612 57.0634C433.811 57.3114 431.303 58.2519 429.273 60.9389C428.621 61.8036 426.137 66.0946 423.755 70.4738C421.372 74.8531 417.427 81.802 414.987 85.9159C410.47 93.5298 393.636 119.279 393.357 119C393.273 118.916 392.481 115.835 391.598 112.153C389.172 102.046 386.442 91.8635 382.363 77.7123C380.337 70.6789 378.565 63.6156 378.426 62.0164L378.174 59.1085L381.634 58.5149C387.064 57.5841 390.835 55.11 390.835 52.479C390.835 50.6496 387.293 47.9357 383.237 46.6583C369.046 42.1878 339.088 41.7984 319.74 45.8331C305.033 48.8998 293.524 53.7945 285.782 60.2753C283.977 61.7862 279.076 64.9692 274.892 67.3483C270.709 69.7273 263.977 74.0323 259.933 76.9141C249.557 84.3089 232.939 95.3076 229.882 96.8035L229.645 96.9194C228.198 97.6274 226.482 97.5005 225.155 96.5873C221.863 94.3231 217.906 89.6852 213.373 82.7792C211.108 79.3289 208.258 74.9858 207.039 73.1279C202.422 66.0868 194.72 59.2605 188.088 56.3328C175.05 50.5753 155.804 50.4421 134.569 55.9626C110.351 62.2587 84.0194 74.9511 44.5953 99.3321C29.9148 108.411 30.8616 107.98 25.0515 108.225C19.2597 108.469 16.4165 109.543 15.169 111.955C14.1301 113.964 14.2522 115.038 15.682 116.467C17.9235 118.709 21.1543 119.458 28.4294 119.421C34.3968 119.392 35.3291 119.261 39.5284 117.869C45.3327 115.944 50.2177 113.427 60.52 107.05C80.8161 94.4862 97.6485 84.9035 110.707 78.4772C133.32 67.3483 156.709 60.5875 166.91 62.2307C174.596 63.4685 179.338 67.7691 188.768 82.0554C198.499 96.7982 202.091 100.64 209.706 104.449C217.395 108.295 228.744 109.294 238.022 106.94C244.599 105.272 249.378 102.755 262.379 94.1113C268.668 89.9303 273.882 86.5712 273.966 86.647C274.05 86.7227 274.421 88.2245 274.789 89.9844C275.721 94.4418 277.585 97.5843 281.382 101.1C288.601 107.783 299.629 110.966 313.591 110.396C330.991 109.686 346.512 103.363 358.15 92.2476C360.211 90.2783 361.971 88.7538 362.061 88.86C363.03 90.008 375.653 143.055 375.963 147.285C376.012 147.964 374.523 150.789 372.189 154.44C361.215 171.606 356.366 180.984 349.013 199.265C342.783 214.754 341.069 222.177 341.084 233.602C341.109 251.683 348.177 264 361.671 269.484C368.2 272.136 377.916 272.939 385.427 271.446C389.95 270.547 396.124 267.624 399.177 264.937C402.26 262.224 406.809 255.272 408.683 250.414C415.478 232.794 414.154 215.096 401.79 158.301L399.741 148.891L403.67 142.376C405.831 138.793 409.393 132.821 411.588 129.105C413.781 125.39 419.313 116.703 423.88 109.803C428.447 102.902 432.457 96.7403 432.791 96.11C433.382 94.9982 433.433 95.0465 434.526 97.7344C439.396 109.717 452.327 118.432 466.226 119.1C479.834 119.753 491.982 114.625 501.488 104.215L504.479 100.94L506.651 103.663C510.926 109.023 517.426 113.22 524.506 115.19C529.245 116.508 541.206 116.381 546.462 114.957C554.413 112.802 561.699 108.265 567.606 101.793C569.369 99.862 570.886 98.3767 570.977 98.4925C571.068 98.6088 571.705 99.681 572.392 100.875C575.055 105.503 579.701 109.163 585.733 111.387C589.482 112.768 597.879 113.361 602.198 112.55C608.958 111.28 612.852 108.997 619.902 102.169L624.818 97.4077L625.36 99.5034C626.279 103.056 626.421 103.47 627.411 105.46C632.055 114.79 642.778 120.195 656.587 120.167C669.698 120.141 681.336 114.619 692.084 103.324L696.219 98.9784L696.548 101.013C697.295 105.631 700.35 109.971 704.901 112.88C711.954 117.389 725.237 118.852 738.284 116.558C750.764 114.364 757.275 110.987 763.117 103.677C765.972 100.105 769.388 93.702 769.938 90.894C770.625 87.3834 765.555 85.2065 757.401 85.511C753.41 85.6601 752.077 85.912 750.106 86.8902C747.848 88.0117 747.596 88.3287 746.114 91.9031C744.257 96.3803 741.116 100.962 738.06 103.653C735.743 105.692 732.594 106.821 727.572 107.412C725.205 107.691 724.618 107.589 723.339 106.678C721.633 105.464 720.234 102.941 719.717 100.152C719.521 99.0899 719.188 94.4211 718.978 89.7764C718.527 79.8467 717.903 77.5376 714.873 74.6036C712.408 72.2154 709.236 70.9747 704.672 70.6143L701.224 70.3421L702.863 68.7028C707.49 64.076 702.627 58.7094 691.028 55.6422C684.696 53.9672 672.857 53.5744 665.149 54.7832C655.942 56.2266 646.682 59.5621 640.718 63.5819C639.571 64.3549 637.546 65.3857 636.219 65.8716C632.245 67.328 626.752 70.2321 623.673 72.5054C620.882 74.565 614.158 81.4498 602.598 94.0828C599.58 97.3802 596.857 100.163 596.546 100.266C595.632 100.571 593.116 95.6217 592.194 91.7067C591.037 86.7908 591.157 74.7296 592.462 64.8742C593.237 59.0206 593.896 56.2174 595.81 50.6385C597.121 46.8176 598.913 40.9771 599.792 37.6595C600.671 34.3418 601.518 31.4865 601.674 31.3142C601.95 31.0092 628.655 29.4641 650.455 28.4912C697.523 26.3916 698.264 26.3361 701.573 24.6476C703.926 23.447 704.605 22.5605 704.416 20.9352C704.215 19.199 701.906 17.6359 698.374 16.8455C696.236 16.3673 693.294 16.3629 684.048 16.8243C677.648 17.1437 664.594 17.7358 655.039 18.1397C645.485 18.5436 630.181 19.2892 621.033 19.7959C611.884 20.3031 604.302 20.6216 604.185 20.5038C604.067 20.3861 604.574 16.9271 605.311 12.8171C606.047 8.70658 606.52 4.82386 606.36 4.18881C605.475 0.660783 594.693 -1.27335 588.271 0.94452ZM335.582 57.9783C327.579 59.1287 313.99 63.1726 306.661 66.5848C303.106 68.24 302.625 68.6362 301.127 71.146C295.374 80.7857 296.38 92.6293 303.383 97.7131C307.743 100.879 312.357 101.138 319.91 98.6416C329.921 95.3331 339.653 87.2376 347.391 75.782C352.435 68.3158 354.881 62.6423 354.41 59.5027L354.101 57.4446L346.289 57.5035C341.993 57.5358 337.174 57.7496 335.582 57.9783ZM657.573 71.7845C656.677 71.9206 655.53 72.8659 654.037 74.6982C649.686 80.0397 648.006 84.9247 648.024 92.1892C648.044 100.544 650.447 106.177 655.302 109.248C656.463 109.983 656.661 109.957 658.922 108.772C666.89 104.594 674.358 96.6027 682.907 83.1083C685.039 79.7424 687.557 76.1744 688.502 75.1788L690.221 73.3692L686.142 73.3673C683.899 73.3663 678.806 72.9363 674.824 72.4118C668.211 71.5408 660.929 71.2763 657.573 71.7845ZM379.528 183.45C375.752 191.432 373.908 195.749 370.539 204.494C365.366 217.925 364.009 224.857 364.431 235.693C364.735 243.48 365.741 247.766 368.492 253.002C370.203 256.259 375.216 261.569 376.579 261.569C377.745 261.569 381.952 256.434 383.952 252.567C386.366 247.902 388.151 242.317 388.929 236.998C389.799 231.046 389.246 216.923 387.741 206.65C386.471 197.988 383.361 180.632 382.718 178.629C382.403 177.646 381.951 178.328 379.528 183.45Z" fill="#E2F163"/>
<path fill-rule="evenodd" clip-rule="evenodd" d="M588.271 0.94452C584.87 2.1186 583.682 3.46447 582.701 7.25791C582.254 8.98308 581.084 13.0439 580.1 16.2823L578.312 22.1701L575.899 22.4254C574.572 22.5658 569.143 23.0209 563.835 23.4359C545.414 24.8768 529.559 26.5431 526.981 27.3094C518 29.9795 522.353 36.2118 533.2 36.2118C535.231 36.2118 543.932 35.5695 552.535 34.7848C577.769 32.483 575.309 32.6094 575.005 33.6329C574.062 36.8034 572.636 43.2249 571.538 49.241C569.457 60.6459 563.557 73.3808 553.431 88.3287C547.363 97.2841 542.439 102.429 537.496 104.977C535.297 106.111 535.278 106.112 533.877 105.194C531.225 103.456 527.494 99.349 525.972 96.4946C522.711 90.3767 520.934 78.3411 521.965 69.362C522.487 64.8119 522.139 63.9201 519.21 62.3045C517.429 61.3225 516.231 61.0933 511.948 60.9166C503.457 60.5668 499.852 62.221 498.481 67.0959C497.255 71.4539 493.043 81.4406 490.645 85.6746C485.628 94.5311 477.286 104.079 471.72 107.334C469.466 108.653 469.295 108.681 467.814 107.974C466.961 107.568 464.962 106.03 463.372 104.558C456.744 98.422 453.775 88.3842 453.218 70.2359L452.937 61.0706L451.511 59.7382C449.258 57.6342 445.583 56.8076 439.612 57.0634C433.811 57.3114 431.303 58.2519 429.273 60.9389C428.621 61.8036 426.137 66.0946 423.755 70.4738C421.372 74.8531 417.427 81.802 414.987 85.9159C410.47 93.5298 393.636 119.279 393.357 119C393.273 118.916 392.481 115.835 391.598 112.153C389.172 102.046 386.442 91.8635 382.363 77.7123C380.337 70.6789 378.565 63.6156 378.426 62.0164L378.174 59.1085L381.634 58.5149C387.064 57.5841 390.835 55.11 390.835 52.479C390.835 50.6496 387.293 47.9357 383.237 46.6583C369.046 42.1878 339.088 41.7984 319.74 45.8331C305.033 48.8998 293.524 53.7945 285.782 60.2753C283.977 61.7862 279.076 64.9692 274.892 67.3483C270.709 69.7273 263.977 74.0323 259.933 76.9141C249.557 84.3089 232.939 95.3076 229.882 96.8035L229.645 96.9194C228.198 97.6274 226.482 97.5005 225.155 96.5873C221.863 94.3231 217.906 89.6852 213.373 82.7792C211.108 79.3289 208.258 74.9858 207.039 73.1279C202.422 66.0868 194.72 59.2605 188.088 56.3328C175.05 50.5753 155.804 50.4421 134.569 55.9626C110.351 62.2587 84.0194 74.9511 44.5953 99.3321C29.9148 108.411 30.8616 107.98 25.0515 108.225C19.2597 108.469 16.4165 109.543 15.169 111.955C14.1301 113.964 14.2522 115.038 15.682 116.467C17.9235 118.709 21.1543 119.458 28.4294 119.421C34.3968 119.392 35.3291 119.261 39.5284 117.869C45.3327 115.944 50.2177 113.427 60.52 107.05C80.8161 94.4862 97.6485 84.9035 110.707 78.4772C133.32 67.3483 156.709 60.5875 166.91 62.2307C174.596 63.4685 179.338 67.7691 188.768 82.0554C198.499 96.7982 202.091 100.64 209.706 104.449C217.395 108.295 228.744 109.294 238.022 106.94C244.599 105.272 249.378 102.755 262.379 94.1113C268.668 89.9303 273.882 86.5712 273.966 86.647C274.05 86.7227 274.421 88.2245 274.789 89.9844C275.721 94.4418 277.585 97.5843 281.382 101.1C288.601 107.783 299.629 110.966 313.591 110.396C330.991 109.686 346.512 103.363 358.15 92.2476C360.211 90.2783 361.971 88.7538 362.061 88.86C363.03 90.008 375.653 143.055 375.963 147.285C376.012 147.964 374.523 150.789 372.189 154.44C361.215 171.606 356.366 180.984 349.013 199.265C342.783 214.754 341.069 222.177 341.084 233.602C341.109 251.683 348.177 264 361.671 269.484C368.2 272.136 377.916 272.939 385.427 271.446C389.95 270.547 396.124 267.624 399.177 264.937C402.26 262.224 406.809 255.272 408.683 250.414C415.478 232.794 414.154 215.096 401.79 158.301L399.741 148.891L403.67 142.376C405.831 138.793 409.393 132.821 411.588 129.105C413.781 125.39 419.313 116.703 423.88 109.803C428.447 102.902 432.457 96.7403 432.791 96.11C433.382 94.9982 433.433 95.0465 434.526 97.7344C439.396 109.717 452.327 118.432 466.226 119.1C479.834 119.753 491.982 114.625 501.488 104.215L504.479 100.94L506.651 103.663C510.926 109.023 517.426 113.22 524.506 115.19C529.245 116.508 541.206 116.381 546.462 114.957C554.413 112.802 561.699 108.265 567.606 101.793C569.369 99.862 570.886 98.3767 570.977 98.4925C571.068 98.6088 571.705 99.681 572.392 100.875C575.055 105.503 579.701 109.163 585.733 111.387C589.482 112.768 597.879 113.361 602.198 112.55C608.958 111.28 612.852 108.997 619.902 102.169L624.818 97.4077L625.36 99.5034C626.279 103.056 626.421 103.47 627.411 105.46C632.055 114.79 642.778 120.195 656.587 120.167C669.698 120.141 681.336 114.619 692.084 103.324L696.219 98.9784L696.548 101.013C697.295 105.631 700.35 109.971 704.901 112.88C711.954 117.389 725.237 118.852 738.284 116.558C750.764 114.364 757.275 110.987 763.117 103.677C765.972 100.105 769.388 93.702 769.938 90.894C770.625 87.3834 765.555 85.2065 757.401 85.511C753.41 85.6601 752.077 85.912 750.106 86.8902C747.848 88.0117 747.596 88.3287 746.114 91.9031C744.257 96.3803 741.116 100.962 738.06 103.653C735.743 105.692 732.594 106.821 727.572 107.412C725.205 107.691 724.618 107.589 723.339 106.678C721.633 105.464 720.234 102.941 719.717 100.152C719.521 99.0899 719.188 94.4211 718.978 89.7764C718.527 79.8467 717.903 77.5376 714.873 74.6036C712.408 72.2154 709.236 70.9747 704.672 70.6143L701.224 70.3421L702.863 68.7028C707.49 64.076 702.627 58.7094 691.028 55.6422C684.696 53.9672 672.857 53.5744 665.149 54.7832C655.942 56.2266 646.682 59.5621 640.718 63.5819C639.571 64.3549 637.546 65.3857 636.219 65.8716C632.245 67.328 626.752 70.2321 623.673 72.5054C620.882 74.565 614.158 81.4498 602.598 94.0828C599.58 97.3802 596.857 100.163 596.546 100.266C595.632 100.571 593.116 95.6217 592.194 91.7067C591.037 86.7908 591.157 74.7296 592.462 64.8742C593.237 59.0206 593.896 56.2174 595.81 50.6385C597.121 46.8176 598.913 40.9771 599.792 37.6595C600.671 34.3418 601.518 31.4865 601.674 31.3142C601.95 31.0092 628.655 29.4641 650.455 28.4912C697.523 26.3916 698.264 26.3361 701.573 24.6476C703.926 23.447 704.605 22.5605 704.416 20.9352C704.215 19.199 701.906 17.6359 698.374 16.8455C696.236 16.3673 693.294 16.3629 684.048 16.8243C677.648 17.1437 664.594 17.7358 655.039 18.1397C645.485 18.5436 630.181 19.2892 621.033 19.7959C611.884 20.3031 604.302 20.6216 604.185 20.5038C604.067 20.3861 604.574 16.9271 605.311 12.8171C606.047 8.70658 606.52 4.82386 606.36 4.18881C605.475 0.660783 594.693 -1.27335 588.271 0.94452ZM335.582 57.9783C327.579 59.1287 313.99 63.1726 306.661 66.5848C303.106 68.24 302.625 68.6362 301.127 71.146C295.374 80.7857 296.38 92.6293 303.383 97.7131C307.743 100.879 312.357 101.138 319.91 98.6416C329.921 95.3331 339.653 87.2376 347.391 75.782C352.435 68.3158 354.881 62.6423 354.41 59.5027L354.101 57.4446L346.289 57.5035C341.993 57.5358 337.174 57.7496 335.582 57.9783ZM657.573 71.7845C656.677 71.9206 655.53 72.8659 654.037 74.6982C649.686 80.0397 648.006 84.9247 648.024 92.1892C648.044 100.544 650.447 106.177 655.302 109.248C656.463 109.983 656.661 109.957 658.922 108.772C666.89 104.594 674.358 96.6027 682.907 83.1083C685.039 79.7424 687.557 76.1744 688.502 75.1788L690.221 73.3692L686.142 73.3673C683.899 73.3663 678.806 72.9363 674.824 72.4118C668.211 71.5408 660.929 71.2763 657.573 71.7845ZM379.528 183.45C375.752 191.432 373.908 195.749 370.539 204.494C365.366 217.925 364.009 224.857 364.431 235.693C364.735 243.48 365.741 247.766 368.492 253.002C370.203 256.259 375.216 261.569 376.579 261.569C377.745 261.569 381.952 256.434 383.952 252.567C386.366 247.902 388.151 242.317 388.929 236.998C389.799 231.046 389.246 216.923 387.741 206.65C386.471 197.988 383.361 180.632 382.718 178.629C382.403 177.646 381.951 178.328 379.528 183.45Z" fill="black" fill-opacity="0.5"/>
<path fill-rule="evenodd" clip-rule="evenodd" d="M588.271 0.94452C584.87 2.1186 583.682 3.46447 582.701 7.25791C582.254 8.98308 581.084 13.0439 580.1 16.2823L578.312 22.1701L575.899 22.4254C574.572 22.5658 569.143 23.0209 563.835 23.4359C545.414 24.8768 529.559 26.5431 526.981 27.3094C518 29.9795 522.353 36.2118 533.2 36.2118C535.231 36.2118 543.932 35.5695 552.535 34.7848C577.769 32.483 575.309 32.6094 575.005 33.6329C574.062 36.8034 572.636 43.2249 571.538 49.241C569.457 60.6459 563.557 73.3808 553.431 88.3287C547.363 97.2841 542.439 102.429 537.496 104.977C535.297 106.111 535.278 106.112 533.877 105.194C531.225 103.456 527.494 99.349 525.972 96.4946C522.711 90.3767 520.934 78.3411 521.965 69.362C522.487 64.8119 522.139 63.9201 519.21 62.3045C517.429 61.3225 516.231 61.0933 511.948 60.9166C503.457 60.5668 499.852 62.221 498.481 67.0959C497.255 71.4539 493.043 81.4406 490.645 85.6746C485.628 94.5311 477.286 104.079 471.72 107.334C469.466 108.653 469.295 108.681 467.814 107.974C466.961 107.568 464.962 106.03 463.372 104.558C456.744 98.422 453.775 88.3842 453.218 70.2359L452.937 61.0706L451.511 59.7382C449.258 57.6342 445.583 56.8076 439.612 57.0634C433.811 57.3114 431.303 58.2519 429.273 60.9389C428.621 61.8036 426.137 66.0946 423.755 70.4738C421.372 74.8531 417.427 81.802 414.987 85.9159C410.47 93.5298 393.636 119.279 393.357 119C393.273 118.916 392.481 115.835 391.598 112.153C389.172 102.046 386.442 91.8635 382.363 77.7123C380.337 70.6789 378.565 63.6156 378.426 62.0164L378.174 59.1085L381.634 58.5149C387.064 57.5841 390.835 55.11 390.835 52.479C390.835 50.6496 387.293 47.9357 383.237 46.6583C369.046 42.1878 339.088 41.7984 319.74 45.8331C305.033 48.8998 293.524 53.7945 285.782 60.2753C283.977 61.7862 279.076 64.9692 274.892 67.3483C270.709 69.7273 263.977 74.0323 259.933 76.9141C249.557 84.3089 232.939 95.3076 229.882 96.8035L229.645 96.9194C228.198 97.6274 226.482 97.5005 225.155 96.5873C221.863 94.3231 217.906 89.6852 213.373 82.7792C211.108 79.3289 208.258 74.9858 207.039 73.1279C202.422 66.0868 194.72 59.2605 188.088 56.3328C175.05 50.5753 155.804 50.4421 134.569 55.9626C110.351 62.2587 84.0194 74.9511 44.5953 99.3321C29.9148 108.411 30.8616 107.98 25.0515 108.225C19.2597 108.469 16.4165 109.543 15.169 111.955C14.1301 113.964 14.2522 115.038 15.682 116.467C17.9235 118.709 21.1543 119.458 28.4294 119.421C34.3968 119.392 35.3291 119.261 39.5284 117.869C45.3327 115.944 50.2177 113.427 60.52 107.05C80.8161 94.4862 97.6485 84.9035 110.707 78.4772C133.32 67.3483 156.709 60.5875 166.91 62.2307C174.596 63.4685 179.338 67.7691 188.768 82.0554C198.499 96.7982 202.091 100.64 209.706 104.449C217.395 108.295 228.744 109.294 238.022 106.94C244.599 105.272 249.378 102.755 262.379 94.1113C268.668 89.9303 273.882 86.5712 273.966 86.647C274.05 86.7227 274.421 88.2245 274.789 89.9844C275.721 94.4418 277.585 97.5843 281.382 101.1C288.601 107.783 299.629 110.966 313.591 110.396C330.991 109.686 346.512 103.363 358.15 92.2476C360.211 90.2783 361.971 88.7538 362.061 88.86C363.03 90.008 375.653 143.055 375.963 147.285C376.012 147.964 374.523 150.789 372.189 154.44C361.215 171.606 356.366 180.984 349.013 199.265C342.783 214.754 341.069 222.177 341.084 233.602C341.109 251.683 348.177 264 361.671 269.484C368.2 272.136 377.916 272.939 385.427 271.446C389.95 270.547 396.124 267.624 399.177 264.937C402.26 262.224 406.809 255.272 408.683 250.414C415.478 232.794 414.154 215.096 401.79 158.301L399.741 148.891L403.67 142.376C405.831 138.793 409.393 132.821 411.588 129.105C413.781 125.39 419.313 116.703 423.88 109.803C428.447 102.902 432.457 96.7403 432.791 96.11C433.382 94.9982 433.433 95.0465 434.526 97.7344C439.396 109.717 452.327 118.432 466.226 119.1C479.834 119.753 491.982 114.625 501.488 104.215L504.479 100.94L506.651 103.663C510.926 109.023 517.426 113.22 524.506 115.19C529.245 116.508 541.206 116.381 546.462 114.957C554.413 112.802 561.699 108.265 567.606 101.793C569.369 99.862 570.886 98.3767 570.977 98.4925C571.068 98.6088 571.705 99.681 572.392 100.875C575.055 105.503 579.701 109.163 585.733 111.387C589.482 112.768 597.879 113.361 602.198 112.55C608.958 111.28 612.852 108.997 619.902 102.169L624.818 97.4077L625.36 99.5034C626.279 103.056 626.421 103.47 627.411 105.46C632.055 114.79 642.778 120.195 656.587 120.167C669.698 120.141 681.336 114.619 692.084 103.324L696.219 98.9784L696.548 101.013C697.295 105.631 700.35 109.971 704.901 112.88C711.954 117.389 725.237 118.852 738.284 116.558C750.764 114.364 757.275 110.987 763.117 103.677C765.972 100.105 769.388 93.702 769.938 90.894C770.625 87.3834 765.555 85.2065 757.401 85.511C753.41 85.6601 752.077 85.912 750.106 86.8902C747.848 88.0117 747.596 88.3287 746.114 91.9031C744.257 96.3803 741.116 100.962 738.06 103.653C735.743 105.692 732.594 106.821 727.572 107.412C725.205 107.691 724.618 107.589 723.339 106.678C721.633 105.464 720.234 102.941 719.717 100.152C719.521 99.0899 719.188 94.4211 718.978 89.7764C718.527 79.8467 717.903 77.5376 714.873 74.6036C712.408 72.2154 709.236 70.9747 704.672 70.6143L701.224 70.3421L702.863 68.7028C707.49 64.076 702.627 58.7094 691.028 55.6422C684.696 53.9672 672.857 53.5744 665.149 54.7832C655.942 56.2266 646.682 59.5621 640.718 63.5819C639.571 64.3549 637.546 65.3857 636.219 65.8716C632.245 67.328 626.752 70.2321 623.673 72.5054C620.882 74.565 614.158 81.4498 602.598 94.0828C599.58 97.3802 596.857 100.163 596.546 100.266C595.632 100.571 593.116 95.6217 592.194 91.7067C591.037 86.7908 591.157 74.7296 592.462 64.8742C593.237 59.0206 593.896 56.2174 595.81 50.6385C597.121 46.8176 598.913 40.9771 599.792 37.6595C600.671 34.3418 601.518 31.4865 601.674 31.3142C601.95 31.0092 628.655 29.4641 650.455 28.4912C697.523 26.3916 698.264 26.3361 701.573 24.6476C703.926 23.447 704.605 22.5605 704.416 20.9352C704.215 19.199 701.906 17.6359 698.374 16.8455C696.236 16.3673 693.294 16.3629 684.048 16.8243C677.648 17.1437 664.594 17.7358 655.039 18.1397C645.485 18.5436 630.181 19.2892 621.033 19.7959C611.884 20.3031 604.302 20.6216 604.185 20.5038C604.067 20.3861 604.574 16.9271 605.311 12.8171C606.047 8.70658 606.52 4.82386 606.36 4.18881C605.475 0.660783 594.693 -1.27335 588.271 0.94452ZM335.582 57.9783C327.579 59.1287 313.99 63.1726 306.661 66.5848C303.106 68.24 302.625 68.6362 301.127 71.146C295.374 80.7857 296.38 92.6293 303.383 97.7131C307.743 100.879 312.357 101.138 319.91 98.6416C329.921 95.3331 339.653 87.2376 347.391 75.782C352.435 68.3158 354.881 62.6423 354.41 59.5027L354.101 57.4446L346.289 57.5035C341.993 57.5358 337.174 57.7496 335.582 57.9783ZM657.573 71.7845C656.677 71.9206 655.53 72.8659 654.037 74.6982C649.686 80.0397 648.006 84.9247 648.024 92.1892C648.044 100.544 650.447 106.177 655.302 109.248C656.463 109.983 656.661 109.957 658.922 108.772C666.89 104.594 674.358 96.6027 682.907 83.1083C685.039 79.7424 687.557 76.1744 688.502 75.1788L690.221 73.3692L686.142 73.3673C683.899 73.3663 678.806 72.9363 674.824 72.4118C668.211 71.5408 660.929 71.2763 657.573 71.7845ZM379.528 183.45C375.752 191.432 373.908 195.749 370.539 204.494C365.366 217.925 364.009 224.857 364.431 235.693C364.735 243.48 365.741 247.766 368.492 253.002C370.203 256.259 375.216 261.569 376.579 261.569C377.745 261.569 381.952 256.434 383.952 252.567C386.366 247.902 388.151 242.317 388.929 236.998C389.799 231.046 389.246 216.923 387.741 206.65C386.471 197.988 383.361 180.632 382.718 178.629C382.403 177.646 381.951 178.328 379.528 183.45Z" fill="#E2F163"/>
<path fill-rule="evenodd" clip-rule="evenodd" d="M588.271 0.94452C584.87 2.1186 583.682 3.46447 582.701 7.25791C582.254 8.98308 581.084 13.0439 580.1 16.2823L578.312 22.1701L575.899 22.4254C574.572 22.5658 569.143 23.0209 563.835 23.4359C545.414 24.8768 529.559 26.5431 526.981 27.3094C518 29.9795 522.353 36.2118 533.2 36.2118C535.231 36.2118 543.932 35.5695 552.535 34.7848C577.769 32.483 575.309 32.6094 575.005 33.6329C574.062 36.8034 572.636 43.2249 571.538 49.241C569.457 60.6459 563.557 73.3808 553.431 88.3287C547.363 97.2841 542.439 102.429 537.496 104.977C535.297 106.111 535.278 106.112 533.877 105.194C531.225 103.456 527.494 99.349 525.972 96.4946C522.711 90.3767 520.934 78.3411 521.965 69.362C522.487 64.8119 522.139 63.9201 519.21 62.3045C517.429 61.3225 516.231 61.0933 511.948 60.9166C503.457 60.5668 499.852 62.221 498.481 67.0959C497.255 71.4539 493.043 81.4406 490.645 85.6746C485.628 94.5311 477.286 104.079 471.72 107.334C469.466 108.653 469.295 108.681 467.814 107.974C466.961 107.568 464.962 106.03 463.372 104.558C456.744 98.422 453.775 88.3842 453.218 70.2359L452.937 61.0706L451.511 59.7382C449.258 57.6342 445.583 56.8076 439.612 57.0634C433.811 57.3114 431.303 58.2519 429.273 60.9389C428.621 61.8036 426.137 66.0946 423.755 70.4738C421.372 74.8531 417.427 81.802 414.987 85.9159C410.47 93.5298 393.636 119.279 393.357 119C393.273 118.916 392.481 115.835 391.598 112.153C389.172 102.046 386.442 91.8635 382.363 77.7123C380.337 70.6789 378.565 63.6156 378.426 62.0164L378.174 59.1085L381.634 58.5149C387.064 57.5841 390.835 55.11 390.835 52.479C390.835 50.6496 387.293 47.9357 383.237 46.6583C369.046 42.1878 339.088 41.7984 319.74 45.8331C305.033 48.8998 293.524 53.7945 285.782 60.2753C283.977 61.7862 279.076 64.9692 274.892 67.3483C270.709 69.7273 263.977 74.0323 259.933 76.9141C249.557 84.3089 232.939 95.3076 229.882 96.8035L229.645 96.9194C228.198 97.6274 226.482 97.5005 225.155 96.5873C221.863 94.3231 217.906 89.6852 213.373 82.7792C211.108 79.3289 208.258 74.9858 207.039 73.1279C202.422 66.0868 194.72 59.2605 188.088 56.3328C175.05 50.5753 155.804 50.4421 134.569 55.9626C110.351 62.2587 84.0194 74.9511 44.5953 99.3321C29.9148 108.411 30.8616 107.98 25.0515 108.225C19.2597 108.469 16.4165 109.543 15.169 111.955C14.1301 113.964 14.2522 115.038 15.682 116.467C17.9235 118.709 21.1543 119.458 28.4294 119.421C34.3968 119.392 35.3291 119.261 39.5284 117.869C45.3327 115.944 50.2177 113.427 60.52 107.05C80.8161 94.4862 97.6485 84.9035 110.707 78.4772C133.32 67.3483 156.709 60.5875 166.91 62.2307C174.596 63.4685 179.338 67.7691 188.768 82.0554C198.499 96.7982 202.091 100.64 209.706 104.449C217.395 108.295 228.744 109.294 238.022 106.94C244.599 105.272 249.378 102.755 262.379 94.1113C268.668 89.9303 273.882 86.5712 273.966 86.647C274.05 86.7227 274.421 88.2245 274.789 89.9844C275.721 94.4418 277.585 97.5843 281.382 101.1C288.601 107.783 299.629 110.966 313.591 110.396C330.991 109.686 346.512 103.363 358.15 92.2476C360.211 90.2783 361.971 88.7538 362.061 88.86C363.03 90.008 375.653 143.055 375.963 147.285C376.012 147.964 374.523 150.789 372.189 154.44C361.215 171.606 356.366 180.984 349.013 199.265C342.783 214.754 341.069 222.177 341.084 233.602C341.109 251.683 348.177 264 361.671 269.484C368.2 272.136 377.916 272.939 385.427 271.446C389.95 270.547 396.124 267.624 399.177 264.937C402.26 262.224 406.809 255.272 408.683 250.414C415.478 232.794 414.154 215.096 401.79 158.301L399.741 148.891L403.67 142.376C405.831 138.793 409.393 132.821 411.588 129.105C413.781 125.39 419.313 116.703 423.88 109.803C428.447 102.902 432.457 96.7403 432.791 96.11C433.382 94.9982 433.433 95.0465 434.526 97.7344C439.396 109.717 452.327 118.432 466.226 119.1C479.834 119.753 491.982 114.625 501.488 104.215L504.479 100.94L506.651 103.663C510.926 109.023 517.426 113.22 524.506 115.19C529.245 116.508 541.206 116.381 546.462 114.957C554.413 112.802 561.699 108.265 567.606 101.793C569.369 99.862 570.886 98.3767 570.977 98.4925C571.068 98.6088 571.705 99.681 572.392 100.875C575.055 105.503 579.701 109.163 585.733 111.387C589.482 112.768 597.879 113.361 602.198 112.55C608.958 111.28 612.852 108.997 619.902 102.169L624.818 97.4077L625.36 99.5034C626.279 103.056 626.421 103.47 627.411 105.46C632.055 114.79 642.778 120.195 656.587 120.167C669.698 120.141 681.336 114.619 692.084 103.324L696.219 98.9784L696.548 101.013C697.295 105.631 700.35 109.971 704.901 112.88C711.954 117.389 725.237 118.852 738.284 116.558C750.764 114.364 757.275 110.987 763.117 103.677C765.972 100.105 769.388 93.702 769.938 90.894C770.625 87.3834 765.555 85.2065 757.401 85.511C753.41 85.6601 752.077 85.912 750.106 86.8902C747.848 88.0117 747.596 88.3287 746.114 91.9031C744.257 96.3803 741.116 100.962 738.06 103.653C735.743 105.692 732.594 106.821 727.572 107.412C725.205 107.691 724.618 107.589 723.339 106.678C721.633 105.464 720.234 102.941 719.717 100.152C719.521 99.0899 719.188 94.4211 718.978 89.7764C718.527 79.8467 717.903 77.5376 714.873 74.6036C712.408 72.2154 709.236 70.9747 704.672 70.6143L701.224 70.3421L702.863 68.7028C707.49 64.076 702.627 58.7094 691.028 55.6422C684.696 53.9672 672.857 53.5744 665.149 54.7832C655.942 56.2266 646.682 59.5621 640.718 63.5819C639.571 64.3549 637.546 65.3857 636.219 65.8716C632.245 67.328 626.752 70.2321 623.673 72.5054C620.882 74.565 614.158 81.4498 602.598 94.0828C599.58 97.3802 596.857 100.163 596.546 100.266C595.632 100.571 593.116 95.6217 592.194 91.7067C591.037 86.7908 591.157 74.7296 592.462 64.8742C593.237 59.0206 593.896 56.2174 595.81 50.6385C597.121 46.8176 598.913 40.9771 599.792 37.6595C600.671 34.3418 601.518 31.4865 601.674 31.3142C601.95 31.0092 628.655 29.4641 650.455 28.4912C697.523 26.3916 698.264 26.3361 701.573 24.6476C703.926 23.447 704.605 22.5605 704.416 20.9352C704.215 19.199 701.906 17.6359 698.374 16.8455C696.236 16.3673 693.294 16.3629 684.048 16.8243C677.648 17.1437 664.594 17.7358 655.039 18.1397C645.485 18.5436 630.181 19.2892 621.033 19.7959C611.884 20.3031 604.302 20.6216 604.185 20.5038C604.067 20.3861 604.574 16.9271 605.311 12.8171C606.047 8.70658 606.52 4.82386 606.36 4.18881C605.475 0.660783 594.693 -1.27335 588.271 0.94452ZM335.582 57.9783C327.579 59.1287 313.99 63.1726 306.661 66.5848C303.106 68.24 302.625 68.6362 301.127 71.146C295.374 80.7857 296.38 92.6293 303.383 97.7131C307.743 100.879 312.357 101.138 319.91 98.6416C329.921 95.3331 339.653 87.2376 347.391 75.782C352.435 68.3158 354.881 62.6423 354.41 59.5027L354.101 57.4446L346.289 57.5035C341.993 57.5358 337.174 57.7496 335.582 57.9783ZM657.573 71.7845C656.677 71.9206 655.53 72.8659 654.037 74.6982C649.686 80.0397 648.006 84.9247 648.024 92.1892C648.044 100.544 650.447 106.177 655.302 109.248C656.463 109.983 656.661 109.957 658.922 108.772C666.89 104.594 674.358 96.6027 682.907 83.1083C685.039 79.7424 687.557 76.1744 688.502 75.1788L690.221 73.3692L686.142 73.3673C683.899 73.3663 678.806 72.9363 674.824 72.4118C668.211 71.5408 660.929 71.2763 657.573 71.7845ZM379.528 183.45C375.752 191.432 373.908 195.749 370.539 204.494C365.366 217.925 364.009 224.857 364.431 235.693C364.735 243.48 365.741 247.766 368.492 253.002C370.203 256.259 375.216 261.569 376.579 261.569C377.745 261.569 381.952 256.434 383.952 252.567C386.366 247.902 388.151 242.317 388.929 236.998C389.799 231.046 389.246 216.923 387.741 206.65C386.471 197.988 383.361 180.632 382.718 178.629C382.403 177.646 381.951 178.328 379.528 183.45Z" fill="black" fill-opacity="0.5"/>
<path d="M8.08201 70.1146C8.66048 69.811 9.08623 69.4746 9.35924 69.1054C9.63787 68.7182 9.77896 68.3128 9.78252 67.8893C9.78608 67.4658 9.67321 67.0356 9.44392 66.5988C9.07828 65.9023 8.59251 65.4646 7.98661 65.2857C7.38071 65.1068 6.64096 65.2467 5.76734 65.7053L2.91629 67.2019L5.23096 71.6113L8.08201 70.1146ZM11.2148 65.6692C11.4502 66.1178 11.609 66.6067 11.691 67.1359C11.7669 67.6533 11.7265 68.1789 11.5701 68.7128C11.4137 69.2467 11.1138 69.7655 10.6705 70.2693C10.2328 70.755 9.63023 71.1993 8.86286 71.6022L6.01181 73.0988L8.64254 78.1103L6.8717 79.0398L0.3646 66.644L4.98649 64.2178C5.95455 63.7096 6.84129 63.4624 7.6467 63.4764C8.45773 63.4723 9.16545 63.673 9.76986 64.0785C10.3799 64.4661 10.8615 64.9963 11.2148 65.6692Z" fill="#EAEAEA"/>
<path d="M8.08201 70.1146C8.66048 69.811 9.08623 69.4746 9.35924 69.1054C9.63787 68.7182 9.77896 68.3128 9.78252 67.8893C9.78608 67.4658 9.67321 67.0356 9.44392 66.5988C9.07828 65.9023 8.59251 65.4646 7.98661 65.2857C7.38071 65.1068 6.64096 65.2467 5.76734 65.7053L2.91629 67.2019L5.23096 71.6113L8.08201 70.1146ZM11.2148 65.6692C11.4502 66.1178 11.609 66.6067 11.691 67.1359C11.7669 67.6533 11.7265 68.1789 11.5701 68.7128C11.4137 69.2467 11.1138 69.7655 10.6705 70.2693C10.2328 70.755 9.63023 71.1993 8.86286 71.6022L6.01181 73.0988L8.64254 78.1103L6.8717 79.0398L0.3646 66.644L4.98649 64.2178C5.95455 63.7096 6.84129 63.4624 7.6467 63.4764C8.45773 63.4723 9.16545 63.673 9.76986 64.0785C10.3799 64.4661 10.8615 64.9963 11.2148 65.6692Z" fill="black" fill-opacity="0.5"/>
<path d="M27.0843 57.7771C26.7497 57.0947 26.2792 56.6497 25.6726 56.4422C25.066 56.2347 24.3197 56.3481 23.4338 56.7824L20.5604 58.1909L22.7525 62.6626L25.6438 61.2452C26.2304 60.9576 26.6653 60.6331 26.9484 60.2716C27.2256 59.8981 27.3718 59.4997 27.3871 59.0765C27.4024 58.6532 27.3014 58.2201 27.0843 57.7771ZM22.6943 55.2739C23.688 54.7868 24.5872 54.5613 25.3919 54.5974C26.2027 54.6157 26.9017 54.8299 27.4888 55.24C28.0879 55.6443 28.5576 56.1936 28.898 56.888C29.1211 57.3429 29.2633 57.83 29.3248 58.3493C29.3864 58.8686 29.3345 59.3989 29.1692 59.9402C28.9981 60.4696 28.684 60.9799 28.227 61.4712C27.776 61.9447 27.1614 62.3722 26.3832 62.7537L23.492 64.1711L25.9833 69.2533L24.1875 70.1336L18.0251 57.5628L22.6943 55.2739ZM27.2153 61.5885L33.4719 65.5822L31.4426 66.577L25.3117 62.5217L27.2153 61.5885Z" fill="#EAEAEA"/>
<path d="M27.0843 57.7771C26.7497 57.0947 26.2792 56.6497 25.6726 56.4422C25.066 56.2347 24.3197 56.3481 23.4338 56.7824L20.5604 58.1909L22.7525 62.6626L25.6438 61.2452C26.2304 60.9576 26.6653 60.6331 26.9484 60.2716C27.2256 59.8981 27.3718 59.4997 27.3871 59.0765C27.4024 58.6532 27.3014 58.2201 27.0843 57.7771ZM22.6943 55.2739C23.688 54.7868 24.5872 54.5613 25.3919 54.5974C26.2027 54.6157 26.9017 54.8299 27.4888 55.24C28.0879 55.6443 28.5576 56.1936 28.898 56.888C29.1211 57.3429 29.2633 57.83 29.3248 58.3493C29.3864 58.8686 29.3345 59.3989 29.1692 59.9402C28.9981 60.4696 28.684 60.9799 28.227 61.4712C27.776 61.9447 27.1614 62.3722 26.3832 62.7537L23.492 64.1711L25.9833 69.2533L24.1875 70.1336L18.0251 57.5628L22.6943 55.2739ZM27.2153 61.5885L33.4719 65.5822L31.4426 66.577L25.3117 62.5217L27.2153 61.5885Z" fill="black" fill-opacity="0.5"/>
<path d="M48.7326 58.5341C47.8372 58.9486 46.9235 59.1806 45.9914 59.2301C45.0714 59.274 44.1893 59.1461 43.3453 58.8463C42.4956 58.5344 41.7254 58.0608 41.0346 57.4256C40.3382 56.7783 39.7687 55.9767 39.3262 55.0208C38.8837 54.0649 38.6437 53.1181 38.6063 52.1804C38.5689 51.2427 38.7061 50.349 39.018 49.4994C39.3299 48.6497 39.8002 47.8883 40.429 47.2152C41.0698 46.5365 41.8379 45.9899 42.7333 45.5754C43.6165 45.1665 44.5182 44.9401 45.4382 44.8962C46.3582 44.8523 47.243 44.9862 48.0927 45.2981C48.9424 45.6101 49.7126 46.0836 50.4034 46.7188C51.0942 47.3541 51.6608 48.1496 52.1034 49.1055C52.5459 50.0614 52.7887 51.0142 52.8317 51.964C52.8691 52.9017 52.7318 53.7954 52.4199 54.6451C52.1024 55.4826 51.6293 56.238 51.0006 56.911C50.3719 57.5841 49.6159 58.1251 48.7326 58.5341ZM48.01 56.9732C48.8691 56.5755 49.545 56.0202 50.0377 55.3072C50.5425 54.5886 50.8237 53.7679 50.8813 52.8449C50.9389 51.922 50.7352 50.9584 50.2703 49.9541C49.7997 48.9378 49.1968 48.159 48.4614 47.6179C47.7204 47.0647 46.9127 46.7481 46.0381 46.6681C45.1757 46.5825 44.3149 46.7385 43.4559 47.1363C42.5847 47.5396 41.8967 48.1005 41.3919 48.8191C40.8871 49.5377 40.6059 50.3584 40.5483 51.2814C40.4972 52.1866 40.7069 53.1474 41.1774 54.1637C41.6424 55.168 42.2393 55.9496 42.9682 56.5084C43.7092 57.0616 44.5169 57.3782 45.3914 57.4582C46.266 57.5382 47.1388 57.3765 48.01 56.9732Z" fill="#EAEAEA"/>
<path d="M48.7326 58.5341C47.8372 58.9486 46.9235 59.1806 45.9914 59.2301C45.0714 59.274 44.1893 59.1461 43.3453 58.8463C42.4956 58.5344 41.7254 58.0608 41.0346 57.4256C40.3382 56.7783 39.7687 55.9767 39.3262 55.0208C38.8837 54.0649 38.6437 53.1181 38.6063 52.1804C38.5689 51.2427 38.7061 50.349 39.018 49.4994C39.3299 48.6497 39.8002 47.8883 40.429 47.2152C41.0698 46.5365 41.8379 45.9899 42.7333 45.5754C43.6165 45.1665 44.5182 44.9401 45.4382 44.8962C46.3582 44.8523 47.243 44.9862 48.0927 45.2981C48.9424 45.6101 49.7126 46.0836 50.4034 46.7188C51.0942 47.3541 51.6608 48.1496 52.1034 49.1055C52.5459 50.0614 52.7887 51.0142 52.8317 51.964C52.8691 52.9017 52.7318 53.7954 52.4199 54.6451C52.1024 55.4826 51.6293 56.238 51.0006 56.911C50.3719 57.5841 49.6159 58.1251 48.7326 58.5341ZM48.01 56.9732C48.8691 56.5755 49.545 56.0202 50.0377 55.3072C50.5425 54.5886 50.8237 53.7679 50.8813 52.8449C50.9389 51.922 50.7352 50.9584 50.2703 49.9541C49.7997 48.9378 49.1968 48.159 48.4614 47.6179C47.7204 47.0647 46.9127 46.7481 46.0381 46.6681C45.1757 46.5825 44.3149 46.7385 43.4559 47.1363C42.5847 47.5396 41.8967 48.1005 41.3919 48.8191C40.8871 49.5377 40.6059 50.3584 40.5483 51.2814C40.4972 52.1866 40.7069 53.1474 41.1774 54.1637C41.6424 55.168 42.2393 55.9496 42.9682 56.5084C43.7092 57.0616 44.5169 57.3782 45.3914 57.4582C46.266 57.5382 47.1388 57.3765 48.01 56.9732Z" fill="black" fill-opacity="0.5"/>
<path d="M63.6337 36.3166C65.0269 35.7087 66.3391 35.4488 67.5705 35.537C68.8141 35.6198 69.9215 36.024 70.8927 36.7494C71.8762 37.4695 72.6585 38.4956 73.2398 39.8276C73.8157 41.1474 74.0306 42.4066 73.8845 43.6051C73.7452 44.786 73.2804 45.8544 72.49 46.8103C71.712 47.7609 70.6263 48.5401 69.2332 49.1481L64.8339 51.0679L59.2344 38.2364L63.6337 36.3166ZM68.5613 47.6083C70.1744 46.9044 71.2124 45.9495 71.6755 44.7436C72.1454 43.5202 72.0497 42.1509 71.3884 40.6355C70.7165 39.0958 69.7696 38.076 68.5477 37.5764C67.3328 37.0591 65.9188 37.1525 64.3057 37.8564L61.7394 38.9763L65.995 48.7282L68.5613 47.6083Z" fill="#EAEAEA"/>
<path d="M63.6337 36.3166C65.0269 35.7087 66.3391 35.4488 67.5705 35.537C68.8141 35.6198 69.9215 36.024 70.8927 36.7494C71.8762 37.4695 72.6585 38.4956 73.2398 39.8276C73.8157 41.1474 74.0306 42.4066 73.8845 43.6051C73.7452 44.786 73.2804 45.8544 72.49 46.8103C71.712 47.7609 70.6263 48.5401 69.2332 49.1481L64.8339 51.0679L59.2344 38.2364L63.6337 36.3166ZM68.5613 47.6083C70.1744 46.9044 71.2124 45.9495 71.6755 44.7436C72.1454 43.5202 72.0497 42.1509 71.3884 40.6355C70.7165 39.0958 69.7696 38.076 68.5477 37.5764C67.3328 37.0591 65.9188 37.1525 64.3057 37.8564L61.7394 38.9763L65.995 48.7282L68.5613 47.6083Z" fill="black" fill-opacity="0.5"/>
<path d="M79.5395 29.5178L81.3923 28.7647L84.7435 37.0097C85.0448 37.7508 85.4378 38.3107 85.9227 38.6893C86.4026 39.0555 86.9373 39.2556 87.5268 39.2895C88.1112 39.311 88.7123 39.1962 89.3299 38.9452C89.9598 38.6892 90.4705 38.3521 90.8618 37.9339C91.2605 37.4984 91.504 36.9821 91.5923 36.3849C91.6756 35.7753 91.5666 35.1 91.2654 34.3589L87.9142 26.1139L89.767 25.3608L93.1031 33.5687C93.4445 34.4087 93.5987 35.1952 93.5656 35.9282C93.5399 36.6439 93.3628 37.306 93.0344 37.9144C92.7133 38.5055 92.2842 39.0254 91.7469 39.474C91.222 39.9177 90.626 40.275 89.959 40.5461C89.0696 40.9076 88.1656 41.0736 87.2468 41.044C86.3231 41.0021 85.4747 40.7208 84.7018 40.2002C83.9362 39.6622 83.3275 38.8374 82.8757 37.7257L79.5395 29.5178Z" fill="#EAEAEA"/>
<path d="M79.5395 29.5178L81.3923 28.7647L84.7435 37.0097C85.0448 37.7508 85.4378 38.3107 85.9227 38.6893C86.4026 39.0555 86.9373 39.2556 87.5268 39.2895C88.1112 39.311 88.7123 39.1962 89.3299 38.9452C89.9598 38.6892 90.4705 38.3521 90.8618 37.9339C91.2605 37.4984 91.504 36.9821 91.5923 36.3849C91.6756 35.7753 91.5666 35.1 91.2654 34.3589L87.9142 26.1139L89.767 25.3608L93.1031 33.5687C93.4445 34.4087 93.5987 35.1952 93.5656 35.9282C93.5399 36.6439 93.3628 37.306 93.0344 37.9144C92.7133 38.5055 92.2842 39.0254 91.7469 39.474C91.222 39.9177 90.626 40.275 89.959 40.5461C89.0696 40.9076 88.1656 41.0736 87.2468 41.044C86.3231 41.0021 85.4747 40.7208 84.7018 40.2002C83.9362 39.6622 83.3275 38.8374 82.8757 37.7257L79.5395 29.5178Z" fill="black" fill-opacity="0.5"/>
<path d="M101.394 28.3153C101.038 27.3241 100.883 26.3598 100.928 25.4224C100.969 24.4725 101.185 23.5944 101.575 22.7882C101.961 21.9694 102.49 21.2547 103.163 20.6443C103.849 20.0293 104.656 19.5549 105.584 19.221C106.902 18.7473 108.185 18.6328 109.435 18.8777C110.698 19.118 111.806 19.7183 112.761 20.6786L111.452 21.7658C110.938 21.2844 110.384 20.9452 109.789 20.7483C109.194 20.5513 108.589 20.4643 107.974 20.4872C107.359 20.51 106.769 20.623 106.204 20.826C105.313 21.1463 104.578 21.6444 104 22.3201C103.433 22.9913 103.081 23.784 102.942 24.6983C102.816 25.608 102.94 26.5836 103.314 27.625C103.684 28.6538 104.207 29.4787 104.884 30.0997C105.573 30.7161 106.352 31.1091 107.221 31.2785C108.098 31.4309 108.981 31.3469 109.872 31.0266C110.449 30.819 110.986 30.5196 111.483 30.1284C111.98 29.7372 112.399 29.2465 112.739 28.6565C113.075 28.054 113.278 27.3576 113.348 26.5672L115.043 26.5528C114.957 28.0858 114.504 29.368 113.685 30.3994C112.861 31.4183 111.771 32.1714 110.416 32.6586C109.488 32.9925 108.564 33.1407 107.643 33.1032C106.736 33.0613 105.872 32.8474 105.053 32.4617C104.235 32.0761 103.509 31.5364 102.877 30.8426C102.241 30.1364 101.746 29.2939 101.394 28.3153Z" fill="#EAEAEA"/>
<path d="M101.394 28.3153C101.038 27.3241 100.883 26.3598 100.928 25.4224C100.969 24.4725 101.185 23.5944 101.575 22.7882C101.961 21.9694 102.49 21.2547 103.163 20.6443C103.849 20.0293 104.656 19.5549 105.584 19.221C106.902 18.7473 108.185 18.6328 109.435 18.8777C110.698 19.118 111.806 19.7183 112.761 20.6786L111.452 21.7658C110.938 21.2844 110.384 20.9452 109.789 20.7483C109.194 20.5513 108.589 20.4643 107.974 20.4872C107.359 20.51 106.769 20.623 106.204 20.826C105.313 21.1463 104.578 21.6444 104 22.3201C103.433 22.9913 103.081 23.784 102.942 24.6983C102.816 25.608 102.94 26.5836 103.314 27.625C103.684 28.6538 104.207 29.4787 104.884 30.0997C105.573 30.7161 106.352 31.1091 107.221 31.2785C108.098 31.4309 108.981 31.3469 109.872 31.0266C110.449 30.819 110.986 30.5196 111.483 30.1284C111.98 29.7372 112.399 29.2465 112.739 28.6565C113.075 28.054 113.278 27.3576 113.348 26.5672L115.043 26.5528C114.957 28.0858 114.504 29.368 113.685 30.3994C112.861 31.4183 111.771 32.1714 110.416 32.6586C109.488 32.9925 108.564 33.1407 107.643 33.1032C106.736 33.0613 105.872 32.8474 105.053 32.4617C104.235 32.0761 103.509 31.5364 102.877 30.8426C102.241 30.1364 101.746 29.2939 101.394 28.3153Z" fill="black" fill-opacity="0.5"/>
<path d="M122.128 13.7988L132.518 11.0826L132.943 12.708L128.725 13.8106L131.841 25.7301L129.906 26.2359L126.79 14.3165L122.552 15.4242L122.128 13.7988Z" fill="#EAEAEA"/>
<path d="M122.128 13.7988L132.518 11.0826L132.943 12.708L128.725 13.8106L131.841 25.7301L129.906 26.2359L126.79 14.3165L122.552 15.4242L122.128 13.7988Z" fill="black" fill-opacity="0.5"/>
<path d="M162.565 8.12322C164.084 8.15195 165.385 8.46326 166.468 9.05716C167.563 9.65131 168.401 10.4806 168.981 11.5451C169.574 12.6098 169.857 13.8688 169.83 15.3218C169.803 16.7616 169.472 17.9956 168.84 19.0238C168.22 20.0389 167.352 20.816 166.235 21.355C165.131 21.8942 163.82 22.1494 162.3 22.1207L157.501 22.03L157.765 8.03249L162.565 8.12322ZM162.332 20.441C164.091 20.4743 165.433 20.0396 166.357 19.1369C167.295 18.2211 167.779 16.9367 167.81 15.2836C167.842 13.6039 167.407 12.2822 166.505 11.3183C165.616 10.3413 164.292 9.83619 162.533 9.80292L159.733 9.75L159.532 20.3881L162.332 20.441Z" fill="#EAEAEA"/>
<path d="M162.565 8.12322C164.084 8.15195 165.385 8.46326 166.468 9.05716C167.563 9.65131 168.401 10.4806 168.981 11.5451C169.574 12.6098 169.857 13.8688 169.83 15.3218C169.803 16.7616 169.472 17.9956 168.84 19.0238C168.22 20.0389 167.352 20.816 166.235 21.355C165.131 21.8942 163.82 22.1494 162.3 22.1207L157.501 22.03L157.765 8.03249L162.565 8.12322ZM162.332 20.441C164.091 20.4743 165.433 20.0396 166.357 19.1369C167.295 18.2211 167.779 16.9367 167.81 15.2836C167.842 13.6039 167.407 12.2822 166.505 11.3183C165.616 10.3413 164.292 9.83619 162.533 9.80292L159.733 9.75L159.532 20.3881L162.332 20.441Z" fill="black" fill-opacity="0.5"/>
<path d="M190.04 14.7439L182.991 12.6279L181.732 16.823L187.019 18.41L186.536 20.0191L181.249 18.4321L179.932 22.8187L186.981 24.9347L186.498 26.5438L177.533 23.8528L181.558 10.4439L190.523 13.1348L190.04 14.7439Z" fill="#EAEAEA"/>
<path d="M190.04 14.7439L182.991 12.6279L181.732 16.823L187.019 18.41L186.536 20.0191L181.249 18.4321L179.932 22.8187L186.981 24.9347L186.498 26.5438L177.533 23.8528L181.558 10.4439L190.523 13.1348L190.04 14.7439Z" fill="black" fill-opacity="0.5"/>
<path d="M196.582 27.1428C196.47 27.5077 196.44 27.8884 196.494 28.2848C196.559 28.6877 196.729 29.0806 197.004 29.4633C197.279 29.846 197.69 30.1902 198.237 30.4959C199.051 30.9512 199.755 31.1 200.347 30.9422C200.958 30.7792 201.406 30.4417 201.692 29.9295C201.926 29.5105 201.996 29.0989 201.901 28.6946C201.824 28.2852 201.629 27.8703 201.314 27.4499C201.017 27.0244 200.643 26.5863 200.192 26.1358C199.805 25.736 199.426 25.3336 199.057 24.9286C198.706 24.5185 198.415 24.0962 198.184 23.6618C197.96 23.2158 197.847 22.748 197.845 22.2584C197.851 21.7573 198.012 21.2215 198.331 20.6512C198.728 19.9412 199.238 19.4244 199.862 19.1009C200.486 18.7774 201.175 18.6509 201.93 18.7215C202.703 18.7868 203.491 19.0439 204.294 19.4927C204.969 19.87 205.519 20.3071 205.944 20.8042C206.375 21.2896 206.67 21.8136 206.83 22.376C207.007 22.9333 207.043 23.511 206.938 24.1091L205.027 23.7974C205.1 23.5023 205.088 23.1824 204.991 22.8376C204.9 22.4813 204.724 22.1389 204.465 21.8107C204.205 21.4824 203.866 21.2011 203.447 20.967C203.023 20.7147 202.594 20.5666 202.16 20.5228C201.745 20.4739 201.357 20.5247 200.998 20.6753C200.651 20.8324 200.373 21.0972 200.165 21.4697C199.937 21.8771 199.875 22.2622 199.977 22.6251C200.08 22.9879 200.281 23.3523 200.581 23.7183C200.892 24.0907 201.241 24.4769 201.629 24.8767C202.033 25.3012 202.419 25.7309 202.787 26.1656C203.155 26.6004 203.451 27.0557 203.674 27.5315C203.908 28.0139 204.028 28.5238 204.033 29.0612C204.045 29.587 203.881 30.1526 203.543 30.7578C203.179 31.4096 202.696 31.9187 202.094 32.2849C201.492 32.6512 200.792 32.825 199.993 32.8061C199.205 32.7938 198.352 32.5307 197.433 32.0169C196.676 31.5941 196.06 31.0972 195.585 30.5262C195.11 29.9552 194.788 29.3555 194.62 28.7269C194.47 28.0933 194.484 27.4672 194.662 26.8486L196.582 27.1428Z" fill="#EAEAEA"/>
<path d="M196.582 27.1428C196.47 27.5077 196.44 27.8884 196.494 28.2848C196.559 28.6877 196.729 29.0806 197.004 29.4633C197.279 29.846 197.69 30.1902 198.237 30.4959C199.051 30.9512 199.755 31.1 200.347 30.9422C200.958 30.7792 201.406 30.4417 201.692 29.9295C201.926 29.5105 201.996 29.0989 201.901 28.6946C201.824 28.2852 201.629 27.8703 201.314 27.4499C201.017 27.0244 200.643 26.5863 200.192 26.1358C199.805 25.736 199.426 25.3336 199.057 24.9286C198.706 24.5185 198.415 24.0962 198.184 23.6618C197.96 23.2158 197.847 22.748 197.845 22.2584C197.851 21.7573 198.012 21.2215 198.331 20.6512C198.728 19.9412 199.238 19.4244 199.862 19.1009C200.486 18.7774 201.175 18.6509 201.93 18.7215C202.703 18.7868 203.491 19.0439 204.294 19.4927C204.969 19.87 205.519 20.3071 205.944 20.8042C206.375 21.2896 206.67 21.8136 206.83 22.376C207.007 22.9333 207.043 23.511 206.938 24.1091L205.027 23.7974C205.1 23.5023 205.088 23.1824 204.991 22.8376C204.9 22.4813 204.724 22.1389 204.465 21.8107C204.205 21.4824 203.866 21.2011 203.447 20.967C203.023 20.7147 202.594 20.5666 202.16 20.5228C201.745 20.4739 201.357 20.5247 200.998 20.6753C200.651 20.8324 200.373 21.0972 200.165 21.4697C199.937 21.8771 199.875 22.2622 199.977 22.6251C200.08 22.9879 200.281 23.3523 200.581 23.7183C200.892 24.0907 201.241 24.4769 201.629 24.8767C202.033 25.3012 202.419 25.7309 202.787 26.1656C203.155 26.6004 203.451 27.0557 203.674 27.5315C203.908 28.0139 204.028 28.5238 204.033 29.0612C204.045 29.587 203.881 30.1526 203.543 30.7578C203.179 31.4096 202.696 31.9187 202.094 32.2849C201.492 32.6512 200.792 32.825 199.993 32.8061C199.205 32.7938 198.352 32.5307 197.433 32.0169C196.676 31.5941 196.06 31.0972 195.585 30.5262C195.11 29.9552 194.788 29.3555 194.62 28.7269C194.47 28.0933 194.484 27.4672 194.662 26.8486L196.582 27.1428Z" fill="black" fill-opacity="0.5"/>
<path d="M217.366 27.9828L219.08 29.0131L211.868 41.0124L210.153 39.9821L217.366 27.9828Z" fill="#EAEAEA"/>
<path d="M217.366 27.9828L219.08 29.0131L211.868 41.0124L210.153 39.9821L217.366 27.9828Z" fill="black" fill-opacity="0.5"/>
<path d="M236.296 39.9777C236.019 38.9404 235.546 38.1241 234.878 37.5291C234.223 36.937 233.447 36.5359 232.551 36.3258C231.643 36.1126 230.76 36.1383 229.904 36.403C229.047 36.6677 228.306 37.1442 227.678 37.8325C227.067 38.5108 226.637 39.3822 226.387 40.4466C226.14 41.4981 226.138 42.47 226.381 43.3623C226.624 44.2547 227.063 45.0083 227.699 45.6232C228.349 46.2412 229.134 46.6584 230.056 46.8746C230.718 47.0299 231.368 47.0593 232.007 46.9627C232.646 46.8661 233.229 46.6604 233.754 46.3455C234.293 46.0337 234.753 45.6211 235.134 45.1078L235.481 43.628L231.197 42.6229L231.572 41.0263L237.822 42.4928L237.077 45.6666C236.571 46.4243 235.929 47.061 235.15 47.5768C234.385 48.0957 233.528 48.4494 232.58 48.6378C231.648 48.8162 230.675 48.7867 229.663 48.5491C228.702 48.3238 227.84 47.9433 227.075 47.4079C226.324 46.8754 225.708 46.2311 225.228 45.4748C224.751 44.7055 224.436 43.8579 224.284 42.9319C224.134 41.9929 224.18 41.0107 224.421 39.9852C224.658 38.9727 225.051 38.0857 225.6 37.3242C226.151 36.5497 226.811 35.924 227.581 35.4471C228.35 34.9702 229.19 34.6605 230.1 34.5179C231.023 34.3784 231.964 34.4213 232.925 34.6467C233.795 34.8507 234.592 35.1885 235.317 35.6598C236.041 36.1312 236.651 36.7126 237.147 37.4039C237.642 38.0953 237.972 38.8781 238.136 39.7521L236.296 39.9777Z" fill="#EAEAEA"/>
<path d="M236.296 39.9777C236.019 38.9404 235.546 38.1241 234.878 37.5291C234.223 36.937 233.447 36.5359 232.551 36.3258C231.643 36.1126 230.76 36.1383 229.904 36.403C229.047 36.6677 228.306 37.1442 227.678 37.8325C227.067 38.5108 226.637 39.3822 226.387 40.4466C226.14 41.4981 226.138 42.47 226.381 43.3623C226.624 44.2547 227.063 45.0083 227.699 45.6232C228.349 46.2412 229.134 46.6584 230.056 46.8746C230.718 47.0299 231.368 47.0593 232.007 46.9627C232.646 46.8661 233.229 46.6604 233.754 46.3455C234.293 46.0337 234.753 45.6211 235.134 45.1078L235.481 43.628L231.197 42.6229L231.572 41.0263L237.822 42.4928L237.077 45.6666C236.571 46.4243 235.929 47.061 235.15 47.5768C234.385 48.0957 233.528 48.4494 232.58 48.6378C231.648 48.8162 230.675 48.7867 229.663 48.5491C228.702 48.3238 227.84 47.9433 227.075 47.4079C226.324 46.8754 225.708 46.2311 225.228 45.4748C224.751 44.7055 224.436 43.8579 224.284 42.9319C224.134 41.9929 224.18 41.0107 224.421 39.9852C224.658 38.9727 225.051 38.0857 225.6 37.3242C226.151 36.5497 226.811 35.924 227.581 35.4471C228.35 34.9702 229.19 34.6605 230.1 34.5179C231.023 34.3784 231.964 34.4213 232.925 34.6467C233.795 34.8507 234.592 35.1885 235.317 35.6598C236.041 36.1312 236.651 36.7126 237.147 37.4039C237.642 38.0953 237.972 38.8781 238.136 39.7521L236.296 39.9777Z" fill="black" fill-opacity="0.5"/>
<path d="M255.243 30.0202L262.104 42.224L260.325 43.2237L248.929 37.1948L254.241 46.6441L252.497 47.6242L245.637 35.4203L247.415 34.4206L258.792 40.4146L253.5 31.0002L255.243 30.0202Z" fill="#EAEAEA"/>
<path d="M255.243 30.0202L262.104 42.224L260.325 43.2237L248.929 37.1948L254.241 46.6441L252.497 47.6242L245.637 35.4203L247.415 34.4206L258.792 40.4146L253.5 31.0002L255.243 30.0202Z" fill="black" fill-opacity="0.5"/>
<path d="M272.741 20.4474L266.642 24.5682L269.095 28.1973L273.668 25.1067L274.609 26.4987L270.035 29.5893L272.6 33.3841L278.698 29.2634L279.638 30.6554L271.883 35.8959L264.045 24.296L271.8 19.0554L272.741 20.4474Z" fill="#EAEAEA"/>
<path d="M272.741 20.4474L266.642 24.5682L269.095 28.1973L273.668 25.1067L274.609 26.4987L270.035 29.5893L272.6 33.3841L278.698 29.2634L279.638 30.6554L271.883 35.8959L264.045 24.296L271.8 19.0554L272.741 20.4474Z" fill="black" fill-opacity="0.5"/>
<path d="M288.933 11.8798C288.483 11.2669 287.942 10.9118 287.308 10.8144C286.674 10.7169 285.96 10.96 285.164 11.5435L282.584 13.436L285.529 17.4517L288.125 15.5474C288.652 15.161 289.023 14.7649 289.238 14.3592C289.445 13.9427 289.519 13.5248 289.46 13.1055C289.4 12.6861 289.224 12.2776 288.933 11.8798ZM284.17 10.1888C285.063 9.5343 285.908 9.15397 286.707 9.04783C287.508 8.92305 288.234 9.01081 288.884 9.31111C289.545 9.60352 290.104 10.0615 290.561 10.6851C290.861 11.0937 291.087 11.5481 291.239 12.0484C291.391 12.5487 291.433 13.0799 291.366 13.6419C291.291 14.1931 291.071 14.7508 290.708 15.3149C290.348 15.8604 289.818 16.3895 289.119 16.9021L286.522 18.8064L289.87 23.3704L288.257 24.5533L279.977 13.2642L284.17 10.1888ZM289.733 15.6085L296.595 18.438L294.773 19.7746L288.023 16.8623L289.733 15.6085Z" fill="#EAEAEA"/>
<path d="M288.933 11.8798C288.483 11.2669 287.942 10.9118 287.308 10.8144C286.674 10.7169 285.96 10.96 285.164 11.5435L282.584 13.436L285.529 17.4517L288.125 15.5474C288.652 15.161 289.023 14.7649 289.238 14.3592C289.445 13.9427 289.519 13.5248 289.46 13.1055C289.4 12.6861 289.224 12.2776 288.933 11.8798ZM284.17 10.1888C285.063 9.5343 285.908 9.15397 286.707 9.04783C287.508 8.92305 288.234 9.01081 288.884 9.31111C289.545 9.60352 290.104 10.0615 290.561 10.6851C290.861 11.0937 291.087 11.5481 291.239 12.0484C291.391 12.5487 291.433 13.0799 291.366 13.6419C291.291 14.1931 291.071 14.7508 290.708 15.3149C290.348 15.8604 289.818 16.3895 289.119 16.9021L286.522 18.8064L289.87 23.3704L288.257 24.5533L279.977 13.2642L284.17 10.1888ZM289.733 15.6085L296.595 18.438L294.773 19.7746L288.023 16.8623L289.733 15.6085Z" fill="black" fill-opacity="0.5"/>
</svg>
