<svg width="244" height="147" viewBox="0 0 244 147" fill="none" xmlns="http://www.w3.org/2000/svg">
<path fill-rule="evenodd" clip-rule="evenodd" d="M55.4806 1.67521C58.3259 3.15696 68.0132 9.34591 73.7177 13.3268L75.7523 14.7465L73.014 17.9343C70.8089 20.5019 69.0799 22.0198 64.1276 25.7358L57.979 30.3498V31.6847C57.979 32.7904 58.44 33.6749 60.6613 36.831C62.1365 38.9269 64.2729 41.8219 65.4086 43.264C74.2854 54.5345 77.1806 58.8741 78.8172 63.363C79.6241 65.5761 79.4044 66.9212 77.502 71.4163C74.6559 78.1419 71.8509 81.3084 64.4674 86.1304C61.9439 87.7785 60.0117 89.1904 60.1735 89.2679C61.0307 89.6789 68.5558 90.1069 83.886 90.6165C112.098 91.554 132.144 92.308 138.722 92.6789C143.566 92.9521 148.656 92.9519 161.813 92.6777C171.096 92.484 179.664 92.248 180.854 92.1527L183.018 91.9797L182.732 90.0551C182.276 86.9966 182.484 80.4918 183.124 77.7389C183.716 75.1935 183.88 74.9217 187.335 70.7951C189.712 67.9551 196.291 63.3657 201.462 60.9391C203.198 60.1248 206.692 59.1712 209.038 58.8712C210.715 58.6567 210.875 58.6891 211.178 59.3073C211.881 60.7433 212.684 66.3164 212.697 69.8491C212.72 76.3481 211.502 78.3178 202.936 85.6372L199.717 88.388L202.157 87.0548C205.564 85.1938 210.248 83.4335 212.943 83.0017C215.014 82.6696 215.523 82.6976 218.545 83.31C224.475 84.5111 227.919 85.7578 232.382 88.319C236.703 90.7983 242.123 94.8188 243.079 96.2533L243.638 97.0927L240.973 99.0211C238.092 101.105 233.688 103.298 229.887 104.54C227.632 105.277 227.114 105.325 220.448 105.41C212.235 105.516 211.546 105.408 205.333 103.042C200.349 101.143 196.336 99.186 193.401 97.2212L191.216 95.758L188.52 95.7866C187.038 95.802 182.977 95.823 179.497 95.8329L173.169 95.851L175.759 96.8847C177.183 97.4531 180.536 99.0592 183.212 100.454C187.228 102.548 188.421 103.345 190.061 105.029C193.457 108.514 194.235 109.82 195.808 114.674C197.024 118.427 197.276 119.701 197.276 122.095V124.985L195.305 124.983C190.628 124.978 183.339 123.551 176.25 121.253C174.846 120.798 171.303 118.109 169.129 115.849C164.561 111.099 163.076 107.451 161.77 97.7709L161.538 96.0491L108.594 96.2224C79.475 96.3174 55.5643 96.4622 55.4592 96.5435C55.3545 96.6251 56.5436 98.2397 58.1021 100.132C70.1451 114.752 70.9227 115.82 74.3721 122.479C76.6861 126.947 77.529 130.91 77.5451 137.398C77.5557 141.652 77.3157 144.505 76.9474 144.505C75.3701 144.505 69.621 143.383 67.8661 142.733L65.5025 141.858L62.1785 143.61C60.3504 144.573 57.8753 145.652 56.6783 146.008L54.5018 146.654L52.4127 145.805C51.2638 145.339 49.3939 144.285 48.2574 143.464L46.1912 141.972L43.388 143.533C40.8506 144.946 36.9 146.253 35.1684 146.253C34.85 146.253 33.1007 145.265 31.2805 144.057L27.9715 141.861L26.5488 142.558C23.9165 143.846 21.8769 144.542 19.1759 145.075L16.4905 145.604L14.9883 144.712C14.1623 144.222 12.9356 143.423 12.2628 142.937L11.0388 142.054L8.33694 143.187C6.01432 144.16 5.29156 144.322 3.18295 144.339L0.730428 144.359L0.421421 142.757C0.251712 141.875 0.0872639 138.795 0.0564758 135.91L0.000147059 130.666L2.53153 123.04C3.92375 118.846 6.31922 112.588 7.85524 109.134C9.77198 104.824 10.7681 102.099 11.0317 100.445C11.2427 99.1204 11.4113 94.4307 11.4056 90.0242C11.4004 85.6177 11.5607 79.8491 11.7623 77.2052C11.9643 74.5613 12.2268 70.0382 12.3462 67.154C12.7314 57.8506 13.7752 35.441 14.2528 26.2206C14.8103 15.453 15.1922 10.541 15.5436 9.61423C15.8522 8.79906 16.5134 8.29213 18.8383 7.08715C20.4378 6.25799 22.4315 5.31784 23.2688 4.99824C25.4003 4.18365 33.9425 1.53274 35.0756 1.33405C35.9403 1.18226 50.7697 0 51.8074 0C52.0583 0 53.7111 0.753698 55.4806 1.67521ZM42.7129 3.65399C37.2973 4.20492 31.5166 5.15643 30.0069 5.74582C29.3873 5.98763 26.9112 7.10696 24.5041 8.23357C20.2463 10.226 19.3061 10.9506 19.3061 12.2392C19.3061 12.5463 20.8801 14.6049 22.8036 16.8141C40.1782 36.768 42.6859 40.0063 49.6451 51.4731C52.2787 55.8118 53.4614 58.4828 53.4685 60.1059C53.4711 60.7162 52.9725 62.7483 52.3601 64.6216C49.0958 74.6094 46.0305 79.4584 37.1557 88.6724C35.3921 90.5034 33.9492 92.0571 33.9492 92.1247C33.9492 92.509 38.929 91.6429 43.1481 90.5253C52.5343 88.0387 55.7322 86.9304 58.9176 85.0603C67.0554 80.2829 70.5983 76.4853 74.1269 68.7563C75.6986 65.3136 75.7407 65.7168 73.3538 61.3272C69.3473 53.958 62.4924 43.942 56.2105 36.2777C54.4398 34.1174 53.8733 33.1813 54.0058 32.6359C54.7845 29.4367 54.7222 29.0233 52.6804 23.8946C50.3897 18.1386 50.3202 19.3555 53.4234 10.8457L55.2587 5.8137L53.1456 4.5318C50.6469 3.01596 49.7379 2.93933 42.7129 3.65399ZM42.5849 7.48512C43.1012 7.56028 44.4949 7.95709 45.6825 8.36671C48.2439 9.24977 48.3115 9.49478 46.7128 12.0941C45.5567 13.9741 42.5815 16.4036 40.1928 17.4184C38.6989 18.0529 31.6574 18.1249 30.1946 17.5206C28.2212 16.7052 25.6905 15.2823 25.6898 14.9877C25.6883 14.4362 29.4643 10.5054 30.6902 9.78234C33.2621 8.26504 39.5767 7.04548 42.5849 7.48512ZM58.2267 11.2894C56.8375 13.8923 55.5775 16.8797 55.7971 17.0501C55.9349 17.157 64.6386 15.6636 67.2334 15.0876C68.163 14.8814 68.9534 14.6235 68.9894 14.5149C69.0559 14.315 60.2385 8.77721 59.8157 8.75303C59.6903 8.74604 58.9754 9.88751 58.2267 11.2894ZM40.9509 11.2894C41.4747 12.2109 41.9598 13.0095 42.0288 13.0646C42.1895 13.1928 44.4622 10.7665 44.4622 10.4667C44.4622 10.2831 43.2243 10.0422 40.2589 9.6489C40.1155 9.62967 40.4267 10.3679 40.9509 11.2894ZM30.5749 13.2505C29.9528 13.9523 29.4437 14.5959 29.4437 14.6809C29.4437 14.8671 33.2708 15.7732 33.4547 15.6304C33.7123 15.4308 32.2788 11.6999 31.9968 11.8354C31.8369 11.912 31.1971 12.5489 30.5749 13.2505ZM61.3581 19.1154C57.9508 19.8653 55.0331 20.5669 54.8742 20.6747C54.6501 20.827 56.8863 25.1156 57.4417 25.598C57.7612 25.8757 67.2751 19.3575 68.5516 17.9862L69.3015 17.1809L68.4274 17.4664C67.9468 17.6238 64.7655 18.3658 61.3581 19.1154ZM203.417 68.0452C202.001 70.0248 200.674 71.6712 200.468 71.7041C200.261 71.737 199.606 71.0544 199.012 70.1871C196.366 66.326 195.835 66.3472 198.035 70.2261L199.572 72.9368L198.086 75.144C195.475 79.02 193.622 81.4308 193.285 81.3886C193.105 81.3661 192.439 80.3829 191.806 79.2035C190.665 77.0825 188.286 73.8737 188.272 74.4383C188.258 75.0094 189.697 78.55 190.85 80.7817C191.493 82.0278 192.02 83.2648 192.02 83.5311C192.02 83.7971 191.246 85.2986 190.301 86.8678C189.356 88.4367 188.638 89.9292 188.705 90.1841C188.858 90.7598 190.956 88.3111 194.839 83.0268C199.558 76.6059 199.331 76.8064 202.169 76.5415C208.844 75.9186 210.715 75.1865 205.661 75.1746C200.461 75.1626 200.457 75.1606 201.85 73.328C203.287 71.4361 209.297 62.138 209.274 61.8402C209.222 61.148 205.625 64.9584 203.417 68.0452ZM208.969 89.2958C207.518 90.8982 206.048 92.516 205.703 92.891C205.037 93.6144 204.366 93.6269 197.839 93.0404C196.807 92.9475 196.075 92.9632 196.213 93.0754C196.806 93.5558 203.953 94.699 209.854 95.2578C219.173 96.1397 218.239 95.8653 221.126 98.5721C223.414 100.718 226.562 103.128 226.562 102.733C226.562 102.505 224.532 99.8709 222.997 98.1068L221.668 96.5793L223.083 96.4838C223.861 96.431 226.047 96.5295 227.94 96.7023C232.107 97.0825 239.704 97.1171 239.704 96.7562C239.704 96.2886 238.591 96.1417 230.554 95.5492C221.021 94.8464 219.053 94.6591 219.053 94.4555C219.053 94.3704 220.025 93.3108 221.212 92.1008C225.452 87.7806 225.342 87.4152 220.823 90.8079C215.824 94.5601 216.253 94.4115 211.381 94.0805C209.123 93.9273 207.203 93.7455 207.115 93.6767C207.026 93.608 208.25 92.0974 209.834 90.3193C211.418 88.5415 212.964 86.5351 213.269 85.8606L213.823 84.6344L212.715 85.5084C212.105 85.9891 210.42 87.6935 208.969 89.2958ZM27.1909 94.7751C26.0551 95.3044 23.1528 96.5651 20.7412 97.5772C18.3299 98.589 15.8913 99.7937 15.3225 100.255L14.2881 101.092L17.6417 100.047C21.4846 98.8495 26.5267 96.5429 28.8155 94.9359C30.7747 93.5602 29.9701 93.4804 27.1909 94.7751ZM165.221 96.5065C165.374 96.7069 166.369 97.854 167.43 99.0557L169.361 101.241L169.018 105.312C168.659 109.578 168.963 113.551 169.504 111.652C169.653 111.129 169.986 108.998 170.243 106.918C170.501 104.837 170.845 103.134 171.007 103.134C171.362 103.134 175.291 106.95 179.798 111.67L183.079 115.108L182.656 116.994C182.334 118.43 182.341 119.159 182.684 120.049C183.266 121.558 183.613 121.101 183.94 118.389C184.082 117.21 184.319 116.245 184.465 116.245C184.612 116.245 185.353 116.867 186.113 117.629C188.992 120.512 191.867 122.646 192.882 122.652C193.46 122.656 185.781 114.687 178.816 108.055C177.198 106.514 175.875 105.189 175.875 105.11C175.875 105.03 177.691 104.894 179.911 104.807C186.361 104.554 186.746 104.129 180.75 103.882C177.965 103.767 175.31 103.604 174.85 103.52C174.39 103.435 172.81 102.257 171.34 100.903C168.438 98.2286 165.775 96.1423 165.264 96.1423C165.087 96.1423 165.067 96.3064 165.221 96.5065ZM46.9264 102.598C47.2797 103.133 48.0239 104.03 48.5796 104.591C50.0292 106.053 53.113 110.133 55.0901 113.204C59.5368 120.112 62.7714 127.074 63.959 132.292C64.3656 134.078 64.7752 135.6 64.8698 135.673C65.2671 135.981 65.5453 133.832 65.3054 132.311C64.889 129.676 63.0342 124.195 61.5436 121.198C59.8364 117.764 54.2168 108.516 52.4773 106.278C51.3081 104.774 46.8074 101.218 46.4364 101.506C46.3527 101.571 46.5731 102.062 46.9264 102.598ZM38.6012 103.062C38.9241 105.225 40.5345 111.943 41.4472 114.934C42.1283 117.165 43.6223 125.25 44.4356 131.104C44.6473 132.627 45.1516 134.593 45.5567 135.474L46.293 137.076L46.1349 134.162C45.7298 126.703 45.5654 124.868 45.0221 121.761C43.6858 114.117 39.6401 101.386 38.5472 101.386C38.4394 101.386 38.4638 102.14 38.6012 103.062ZM27.6167 104.737C27.0279 108.012 26.4445 118.46 26.4422 125.775C26.4403 131.015 26.5639 132.407 27.2551 134.925C28.7096 140.226 28.8422 138.597 28.7404 116.682C28.701 108.254 28.529 101.726 28.3526 101.969C28.1784 102.209 27.8468 103.455 27.6167 104.737ZM18.758 106.048C17.906 107.084 14.148 114.576 13.1132 117.302C11.4601 121.655 10.203 132.558 10.9505 136.056L11.293 137.658L11.5566 135.619C12.5515 127.921 13.4478 122.239 13.9239 120.615C14.567 118.421 16.6895 112.748 17.7393 110.418C18.5473 108.624 21.0126 104.607 21.5713 104.174C21.7711 104.019 21.9344 103.763 21.9344 103.604C21.9344 103.175 19.7191 104.879 18.758 106.048Z" fill="#44481E" fill-opacity="0.4"/>
</svg>
