<svg width="159" height="148" viewBox="0 0 159 148" fill="none" xmlns="http://www.w3.org/2000/svg">
<path fill-rule="evenodd" clip-rule="evenodd" d="M55.4806 2.1547C58.3259 3.63646 68.0132 9.8254 73.7177 13.8063L75.7523 15.226L73.014 18.4138C70.8089 20.9814 69.0799 22.4993 64.1276 26.2153L57.979 30.8293V32.1642C57.979 33.2699 58.44 34.1544 60.6613 37.3105C62.1365 39.4064 64.2729 42.3014 65.4086 43.7435C74.2854 55.014 77.1806 59.3536 78.8172 63.8425C79.6241 66.0555 79.4044 67.4007 77.502 71.8958C74.6559 78.6214 71.8509 81.7879 64.4673 86.6099C61.9439 88.258 60.0117 89.6699 60.1735 89.7473C61.0307 90.1584 68.5558 90.5864 83.886 91.096C112.098 92.0335 132.144 92.7875 138.722 93.1584C143.566 93.4316 148.656 93.4314 161.813 93.1572C171.096 92.9635 179.664 92.7275 180.854 92.6322L183.018 92.4591L182.732 90.5345C182.276 87.4761 182.484 80.9713 183.124 78.2184C183.716 75.673 183.88 75.4012 187.335 71.2746C189.712 68.4346 196.291 63.8451 201.462 61.4186C203.198 60.6043 206.692 59.6507 209.038 59.3506C210.715 59.1362 210.875 59.1686 211.178 59.7868C211.881 61.2228 212.684 66.7958 212.697 70.3286C212.72 76.8276 211.502 78.7973 202.936 86.1167L199.717 88.8675L202.157 87.5343C205.564 85.6732 210.248 83.913 212.943 83.4812C215.014 83.1491 215.523 83.177 218.545 83.7894C224.475 84.9906 227.919 86.2373 232.382 88.7985C236.703 91.2778 242.123 95.2983 243.079 96.7328L243.638 97.5722L240.973 99.5006C238.092 101.585 233.688 103.777 229.887 105.019C227.632 105.756 227.114 105.804 220.448 105.89C212.235 105.995 211.546 105.887 205.333 103.521C200.349 101.623 196.336 99.6655 193.401 97.7007L191.216 96.2375L188.52 96.2661C187.038 96.2815 182.977 96.3025 179.497 96.3124L173.169 96.3305L175.759 97.3642C177.183 97.9326 180.536 99.5387 183.212 100.933C187.228 103.028 188.421 103.824 190.061 105.508C193.457 108.994 194.235 110.3 195.808 115.153C197.024 118.906 197.276 120.18 197.276 122.574V125.465L195.305 125.462C190.628 125.458 183.339 124.031 176.25 121.732C174.846 121.277 171.303 118.589 169.129 116.328C164.561 111.579 163.076 107.931 161.77 98.2504L161.538 96.5286L108.594 96.7019C79.475 96.7969 55.5643 96.9417 55.4592 97.023C55.3545 97.1046 56.5435 98.7192 58.1021 100.611C70.1451 115.231 70.9227 116.3 74.3721 122.959C76.6861 127.427 77.529 131.39 77.5451 137.877C77.5556 142.131 77.3157 144.984 76.9474 144.984C75.3701 144.984 69.621 143.863 67.8661 143.213L65.5025 142.338L62.1785 144.089C60.3504 145.053 57.8753 146.132 56.6783 146.487L54.5018 147.134L52.4127 146.285C51.2638 145.818 49.394 144.765 48.2574 143.944L46.1912 142.452L43.388 144.012C40.8506 145.425 36.9 146.732 35.1684 146.732C34.85 146.732 33.1007 145.744 31.2805 144.536L27.9715 142.34L26.5488 143.037C23.9165 144.326 21.877 145.022 19.1759 145.554L16.4905 146.084L14.9883 145.192C14.1623 144.701 12.9357 143.903 12.2628 143.417L11.0388 142.534L8.33694 143.666C6.01433 144.64 5.29156 144.801 3.18295 144.819L0.730423 144.839L0.421417 143.236C0.251709 142.355 0.087265 139.274 0.0564728 136.39L0.000152588 131.146L2.53152 123.52C3.92375 119.325 6.31921 113.068 7.85524 109.614C9.77199 105.303 10.7681 102.579 11.0316 100.925C11.2427 99.5999 11.4113 94.9102 11.4056 90.5037C11.4004 86.0971 11.5607 80.3286 11.7623 77.6847C11.9643 75.0408 12.2268 70.5177 12.3462 67.6335C12.7314 58.3301 13.7752 35.9205 14.2528 26.7001C14.8103 15.9325 15.1922 11.0205 15.5436 10.0937C15.8522 9.27855 16.5134 8.77162 18.8383 7.56664C20.4378 6.73748 22.4315 5.79733 23.2688 5.47773C25.4003 4.66314 33.9425 2.01223 35.0756 1.81354C35.9403 1.66175 50.7697 0.479492 51.8074 0.479492C52.0583 0.479492 53.7111 1.23319 55.4806 2.1547ZM42.713 4.13348C37.2973 4.68441 31.5166 5.63593 30.0069 6.22531C29.3873 6.46712 26.9112 7.58645 24.5041 8.71306C20.2463 10.7055 19.3061 11.4301 19.3061 12.7187C19.3061 13.0258 20.8801 15.0844 22.8036 17.2936C40.1782 37.2475 42.6859 40.4858 49.6451 51.9526C52.2787 56.2913 53.4614 58.9623 53.4685 60.5853C53.4711 61.1957 52.9725 63.2278 52.3601 65.1011C49.0958 75.0889 46.0305 79.9379 37.1557 89.1518C35.3921 90.9829 33.9492 92.5366 33.9492 92.6042C33.9492 92.9885 38.929 92.1224 43.1481 91.0048C52.5343 88.5182 55.7322 87.4099 58.9176 85.5398C67.0554 80.7624 70.5983 76.9648 74.1269 69.2358C75.6986 65.7931 75.7407 66.1963 73.3538 61.8066C69.3473 54.4375 62.4924 44.4215 56.2105 36.7572C54.4398 34.5969 53.8733 33.6608 54.0058 33.1154C54.7845 29.9162 54.7222 29.5028 52.6804 24.3741C50.3897 18.6181 50.3202 19.835 53.4234 11.3252L55.2587 6.29319L53.1456 5.01129C50.6469 3.49545 49.7379 3.41883 42.713 4.13348ZM42.5849 7.96461C43.1012 8.03978 44.4949 8.43658 45.6825 8.8462C48.2439 9.72926 48.3115 9.97428 46.7128 12.5736C45.5567 14.4536 42.5815 16.8831 40.1928 17.8979C38.6989 18.5324 31.6574 18.6044 30.1946 18.0001C28.2212 17.1847 25.6905 15.7618 25.6898 15.4672C25.6883 14.9157 29.4643 10.9849 30.6902 10.2618C33.2621 8.74453 39.5767 7.52498 42.5849 7.96461ZM58.2267 11.7689C56.8375 14.3718 55.5775 17.3592 55.7971 17.5296C55.9349 17.6365 64.6386 16.1431 67.2334 15.5671C68.163 15.3609 68.9534 15.103 68.9894 14.9944C69.0559 14.7945 60.2385 9.2567 59.8157 9.23252C59.6903 9.22553 58.9754 10.367 58.2267 11.7689ZM40.9509 11.7689C41.4747 12.6904 41.9598 13.489 42.0288 13.5441C42.1895 13.6723 44.4622 11.246 44.4622 10.9462C44.4622 10.7626 43.2243 10.5217 40.2589 10.1284C40.1155 10.1092 40.4267 10.8474 40.9509 11.7689ZM30.5749 13.7299C29.9528 14.4318 29.4437 15.0754 29.4437 15.1604C29.4437 15.3466 33.2708 16.2527 33.4547 16.1099C33.7123 15.9103 32.2788 12.1794 31.9968 12.3149C31.8369 12.3915 31.1971 13.0284 30.5749 13.7299ZM61.3581 19.5949C57.9508 20.3448 55.0331 21.0464 54.8743 21.1542C54.6501 21.3065 56.8863 25.5951 57.4417 26.0775C57.7612 26.3552 67.2751 19.837 68.5517 18.4657L69.3015 17.6604L68.4274 17.9459C67.9468 18.1033 64.7655 18.8453 61.3581 19.5949ZM203.417 68.5247C202.001 70.5043 200.674 72.1507 200.468 72.1836C200.261 72.2165 199.606 71.5339 199.012 70.6666C196.366 66.8055 195.835 66.8267 198.035 70.7056L199.572 73.4163L198.086 75.6235C195.475 79.4995 193.622 81.9103 193.285 81.868C193.105 81.8456 192.439 80.8623 191.806 79.683C190.665 77.562 188.286 74.3532 188.272 74.9178C188.258 75.4889 189.697 79.0295 190.85 81.2612C191.493 82.5072 192.02 83.7443 192.02 84.0106C192.02 84.2766 191.246 85.7781 190.301 87.3473C189.356 88.9162 188.638 90.4087 188.705 90.6636C188.858 91.2393 190.956 88.7906 194.839 83.5063C199.558 77.0854 199.331 77.2858 202.169 77.021C208.844 76.3981 210.715 75.666 205.661 75.6541C200.461 75.6421 200.457 75.6401 201.85 73.8075C203.287 71.9156 209.297 62.6174 209.274 62.3197C209.222 61.6275 205.625 65.4379 203.417 68.5247ZM208.969 89.7753C207.518 91.3777 206.048 92.9955 205.703 93.3705C205.037 94.0939 204.366 94.1064 197.839 93.5199C196.807 93.427 196.075 93.4427 196.213 93.5549C196.806 94.0353 203.953 95.1785 209.854 95.7373C219.173 96.6192 218.239 96.3447 221.126 99.0516C223.414 101.198 226.562 103.607 226.562 103.213C226.562 102.985 224.532 100.35 222.997 98.5863L221.668 97.0588L223.083 96.9633C223.861 96.9105 226.047 97.009 227.94 97.1818C232.107 97.562 239.704 97.5966 239.704 97.2357C239.704 96.7681 238.591 96.6212 230.554 96.0286C221.021 95.3259 219.053 95.1386 219.053 94.935C219.053 94.8499 220.025 93.7903 221.212 92.5803C225.452 88.2601 225.342 87.8947 220.823 91.2874C215.824 95.0396 216.253 94.891 211.381 94.56C209.123 94.4068 207.203 94.225 207.115 94.1562C207.026 94.0874 208.25 92.5769 209.834 90.7988C211.418 89.021 212.964 87.0146 213.269 86.3401L213.823 85.1139L212.715 85.9879C212.105 86.4686 210.42 88.1729 208.969 89.7753ZM27.1909 95.2546C26.0551 95.7839 23.1528 97.0445 20.7412 98.0567C18.3299 99.0685 15.8913 100.273 15.3225 100.734L14.2881 101.572L17.6417 100.527C21.4846 99.329 26.5267 97.0224 28.8155 95.4154C30.7747 94.0397 29.9701 93.9598 27.1909 95.2546ZM165.221 96.986C165.374 97.1864 166.369 98.3334 167.43 99.5352L169.361 101.72L169.018 105.791C168.659 110.058 168.963 114.031 169.504 112.131C169.653 111.608 169.986 109.478 170.243 107.397C170.501 105.316 170.845 103.614 171.007 103.614C171.362 103.614 175.291 107.429 179.798 112.15L183.079 115.587L182.656 117.474C182.334 118.909 182.341 119.639 182.684 120.529C183.266 122.038 183.613 121.58 183.94 118.869C184.082 117.689 184.319 116.724 184.465 116.724C184.612 116.724 185.353 117.347 186.113 118.108C188.992 120.992 191.867 123.125 192.882 123.132C193.46 123.136 185.781 115.166 178.816 108.534C177.198 106.994 175.875 105.669 175.875 105.589C175.875 105.51 177.691 105.373 179.911 105.286C186.361 105.033 186.746 104.609 180.75 104.362C177.965 104.247 175.31 104.084 174.85 103.999C174.39 103.914 172.81 102.737 171.34 101.382C168.438 98.7081 165.775 96.6218 165.264 96.6218C165.087 96.6218 165.067 96.7858 165.221 96.986ZM46.9264 103.077C47.2797 103.613 48.0239 104.51 48.5796 105.071C50.0292 106.533 53.1129 110.613 55.0901 113.684C59.5368 120.592 62.7714 127.553 63.959 132.772C64.3656 134.558 64.7752 136.079 64.8698 136.153C65.2671 136.461 65.5453 134.311 65.3054 132.791C64.889 130.155 63.0342 124.675 61.5436 121.677C59.8364 118.244 54.2168 108.996 52.4773 106.758C51.3081 105.253 46.8074 101.697 46.4364 101.985C46.3527 102.05 46.5731 102.541 46.9264 103.077ZM38.6012 103.541C38.9241 105.705 40.5345 112.422 41.4473 115.413C42.1283 117.645 43.6223 125.73 44.4356 131.584C44.6473 133.106 45.1516 135.073 45.5567 135.954L46.293 137.555L46.1349 134.642C45.7298 127.183 45.5654 125.348 45.0221 122.24C43.6858 114.597 39.6401 101.866 38.5472 101.866C38.4394 101.866 38.4638 102.62 38.6012 103.541ZM27.6167 105.216C27.0279 108.491 26.4445 118.94 26.4422 126.255C26.4403 131.494 26.5639 132.886 27.2551 135.404C28.7096 140.705 28.8422 139.077 28.7404 117.161C28.701 108.733 28.529 102.206 28.3526 102.449C28.1784 102.689 27.8468 103.934 27.6167 105.216ZM18.7579 106.527C17.906 107.563 14.148 115.056 13.1132 117.782C11.4601 122.134 10.203 133.038 10.9505 136.535L11.293 138.138L11.5565 136.098C12.5515 128.4 13.4478 122.718 13.9239 121.094C14.567 118.9 16.6895 113.228 17.7393 110.897C18.5473 109.104 21.0126 105.087 21.5713 104.653C21.7711 104.498 21.9344 104.242 21.9344 104.084C21.9344 103.654 19.7191 105.359 18.7579 106.527Z" fill="#44481E" fill-opacity="0.4"/>
</svg>
